<svg xmlns="http://www.w3.org/2000/svg" width="26" height="22" viewBox="0 0 26 22" fill="none">
  <path d="M7.72687 7.99841H18.4898" stroke="#8B68AC" stroke-width="1.5" stroke-linecap="round" stroke-linejoin="round"/>
  <path d="M6.38147 12.664H7.72684" stroke="#8B68AC" stroke-width="1.5" stroke-linecap="round" stroke-linejoin="round"/>
  <path d="M18.4898 12.664H19.8352" stroke="#8B68AC" stroke-width="1.5" stroke-linecap="round" stroke-linejoin="round"/>
  <path d="M1 17.3296V9.64361C1 9.32774 1.07402 9.01503 1.21756 8.72472L4.33719 2.41386C4.76119 1.55613 5.734 1 6.81037 1H19.4063C20.4827 1 21.4554 1.55613 21.8795 2.41386L24.9991 8.72472C25.1426 9.01503 25.2166 9.32774 25.2166 9.64361V17.3296M1 17.3296V20.129C1 20.5155 1.36141 20.8288 1.80722 20.8288H5.57426C6.02007 20.8288 6.38148 20.5155 6.38148 20.129V17.3296M1 17.3296H6.38148M25.2166 17.3296V20.129C25.2166 20.5155 24.8553 20.8288 24.4094 20.8288H20.6424C20.1965 20.8288 19.8352 20.5155 19.8352 20.129V17.3296M25.2166 17.3296H19.8352M6.38148 17.3296H19.8352" stroke="#8B68AC" stroke-width="1.5"/>
</svg>