<svg width="40" height="37" viewBox="0 0 40 37" fill="none" xmlns="http://www.w3.org/2000/svg">
<path d="M21.6666 3.04146C22.9013 3.03964 24.093 3.45185 25.0123 4.19873C25.9316 4.94562 26.5135 5.97434 26.6459 7.08681C26.7784 8.19928 26.452 9.31682 25.7296 10.2242C25.0072 11.1316 23.9399 11.7647 22.7333 12.0016L22.4483 12.0499L24.8416 15.5195L27.715 14.4773C28.1102 14.3327 28.5515 14.3308 28.9482 14.472C29.3449 14.6132 29.6668 14.8868 29.8478 15.2365C30.0288 15.5862 30.0551 15.9855 29.9212 16.3522C29.7874 16.7189 29.5037 17.0252 29.1283 17.2082L28.9516 17.2837L26.08 18.3244C25.3992 18.5713 24.6477 18.6078 23.9418 18.4284C23.2358 18.249 22.6148 17.8637 22.175 17.3321L22.015 17.1206L21.7433 16.7279L20.7333 20.3893C20.6459 20.7079 20.5018 21.0114 20.3066 21.288L20.1566 21.4844L22.9116 23.3392C23.5688 23.7818 24.0232 24.4281 24.1883 25.1548L24.2366 25.4297L24.825 30.23H25C25.4248 30.2304 25.8333 30.3778 26.1422 30.6421C26.4511 30.9064 26.637 31.2676 26.6619 31.652C26.6868 32.0363 26.5488 32.4147 26.2762 32.7099C26.0035 33.0052 25.6168 33.1949 25.195 33.2404L25 33.251H23.4833C23.0662 33.251 22.6615 33.1222 22.3361 32.8858C22.0107 32.6494 21.7839 32.3194 21.6933 31.9504L21.66 31.7737L20.9233 25.7635L15.6733 22.229C15.5799 22.1668 15.4939 22.0959 15.4166 22.0176C14.9537 21.6816 14.5979 21.2398 14.3861 20.7377C14.1743 20.2356 14.1141 19.6914 14.2116 19.1612L14.2666 18.9241L15.59 14.1253L12.9733 14.8352L11.5816 18.6235C11.448 18.9901 11.1645 19.2963 10.7895 19.4794C10.4145 19.6624 9.97639 19.7084 9.56513 19.6079C9.15387 19.5074 8.80069 19.268 8.57811 18.9388C8.35554 18.6097 8.28045 18.2158 8.36829 17.8381L8.41829 17.6689L9.81162 13.8806C9.96641 13.4603 10.2213 13.076 10.5583 12.7549C10.8953 12.4338 11.3061 12.1839 11.7616 12.0227L12.0166 11.9427L17.745 10.3854C17.1617 9.71761 16.7979 8.91437 16.6952 8.06778C16.5926 7.22118 16.7553 6.36552 17.1647 5.59889C17.5741 4.83227 18.2136 4.18572 19.0098 3.73338C19.8061 3.28105 20.7269 3.04124 21.6666 3.04146ZM16 22.9797C16.3536 23.2201 16.5874 23.5779 16.6499 23.9745C16.7124 24.3711 16.5985 24.7739 16.3333 25.0944L14.3066 27.5444C13.9232 28.0077 13.3586 28.3203 12.7287 28.418C12.0989 28.5158 11.4516 28.3913 10.92 28.07L7.70329 26.126C7.37034 26.3682 6.94757 26.4853 6.52214 26.4533C6.09671 26.4212 5.70106 26.2425 5.41678 25.9538C5.1325 25.6652 4.98127 25.2887 4.99427 24.902C5.00726 24.5153 5.18349 24.1479 5.48662 23.8754L6.31162 23.1293C6.58669 22.8795 6.94879 22.7238 7.33626 22.6889C7.72373 22.6539 8.1126 22.7417 8.43662 22.9374L12.1133 25.1593L13.6666 23.2818C13.7979 23.1231 13.9625 22.9894 14.1508 22.8884C14.3391 22.7873 14.5476 22.7209 14.7643 22.6928C14.9809 22.6648 15.2016 22.6757 15.4136 22.7249C15.6256 22.7741 15.8249 22.8607 16 22.9797Z" fill="#8B68AC"/>
</svg>
