<svg width="390" height="310" viewBox="0 0 390 310" fill="none" xmlns="http://www.w3.org/2000/svg">
<g clip-path="url(#clip0_73_10120)">
<g opacity="0.7" filter="url(#filter0_d_73_10120)">
<rect x="24.47" y="60.47" width="335.06" height="201.06" rx="13.6313" stroke="#8B68AC" stroke-opacity="0.1" stroke-width="0.940092" shape-rendering="crispEdges"/>
</g>
<path d="M85.1485 173.365C64.9292 173.365 46.8867 182.621 46.8867 182.621V237.899H335.567V161.594C335.567 161.594 326.185 155.088 311.349 152.981C284.607 149.183 280.875 176.907 257.383 176.907C240.127 176.907 238.936 159.584 215.928 158.005C192.921 156.426 182.542 196.206 145.452 195.758C117.668 195.422 100.774 173.365 85.1485 173.365Z" fill="url(#paint0_linear_73_10120)"/>
<path d="M47.6908 182.445C47.6908 182.445 65.2325 173.291 85.4292 173.291C102.238 173.291 117.912 195.27 145.665 195.604C182.714 196.051 193.08 156.413 216.062 157.986C239.044 159.559 240.234 176.82 257.47 176.82C280.936 176.82 284.664 149.196 311.376 152.98C326.195 155.079 335.567 161.562 335.567 161.562" stroke="#8B68AC" stroke-width="2.07412" stroke-linecap="round"/>
<g filter="url(#filter1_d_73_10120)">
<circle cx="227.5" cy="159.5" r="6.5" fill="url(#paint1_linear_73_10120)"/>
<circle cx="227.5" cy="159.5" r="5.25553" stroke="white" stroke-width="2.48894"/>
</g>
<path opacity="0.5" d="M42.3849 248.096C41.8515 248.096 41.4435 247.909 41.1609 247.536C40.8835 247.157 40.7449 246.645 40.7449 246C40.7449 245.552 40.7929 245.109 40.8889 244.672C40.9849 244.229 41.1315 243.832 41.3289 243.48C41.5262 243.123 41.7769 242.837 42.0809 242.624C42.3902 242.411 42.7529 242.304 43.1689 242.304C43.7022 242.304 44.1075 242.493 44.3849 242.872C44.6675 243.245 44.8089 243.755 44.8089 244.4C44.8089 244.848 44.7609 245.293 44.6649 245.736C44.5689 246.173 44.4222 246.571 44.2249 246.928C44.0275 247.28 43.7742 247.563 43.4649 247.776C43.1609 247.989 42.8009 248.096 42.3849 248.096ZM42.4649 247.44C42.7209 247.44 42.9449 247.357 43.1369 247.192C43.3342 247.021 43.4995 246.792 43.6329 246.504C43.7662 246.216 43.8649 245.888 43.9289 245.52C43.9982 245.147 44.0329 244.757 44.0329 244.352C44.0329 243.904 43.9529 243.56 43.7929 243.32C43.6382 243.08 43.4035 242.96 43.0889 242.96C42.8329 242.96 42.6062 243.045 42.4089 243.216C42.2169 243.381 42.0542 243.608 41.9209 243.896C41.7875 244.184 41.6862 244.515 41.6169 244.888C41.5529 245.256 41.5209 245.643 41.5209 246.048C41.5209 246.496 41.6009 246.84 41.7609 247.08C41.9209 247.32 42.1555 247.44 42.4649 247.44ZM47.1818 248.096C46.6484 248.096 46.2404 247.909 45.9578 247.536C45.6804 247.157 45.5418 246.645 45.5418 246C45.5418 245.552 45.5898 245.109 45.6858 244.672C45.7818 244.229 45.9284 243.832 46.1258 243.48C46.3231 243.123 46.5738 242.837 46.8778 242.624C47.1871 242.411 47.5498 242.304 47.9658 242.304C48.4991 242.304 48.9044 242.493 49.1818 242.872C49.4644 243.245 49.6058 243.755 49.6058 244.4C49.6058 244.848 49.5578 245.293 49.4618 245.736C49.3657 246.173 49.2191 246.571 49.0218 246.928C48.8244 247.28 48.5711 247.563 48.2618 247.776C47.9578 247.989 47.5978 248.096 47.1818 248.096ZM47.2618 247.44C47.5178 247.44 47.7418 247.357 47.9338 247.192C48.1311 247.021 48.2964 246.792 48.4298 246.504C48.5631 246.216 48.6618 245.888 48.7258 245.52C48.7951 245.147 48.8298 244.757 48.8298 244.352C48.8298 243.904 48.7498 243.56 48.5898 243.32C48.4351 243.08 48.2004 242.96 47.8858 242.96C47.6298 242.96 47.4031 243.045 47.2057 243.216C47.0138 243.381 46.8511 243.608 46.7178 243.896C46.5844 244.184 46.4831 244.515 46.4138 244.888C46.3498 245.256 46.3178 245.643 46.3178 246.048C46.3178 246.496 46.3978 246.84 46.5578 247.08C46.7178 247.32 46.9524 247.44 47.2618 247.44ZM54.3771 248.096C53.8437 248.096 53.4357 247.909 53.1531 247.536C52.8757 247.157 52.7371 246.645 52.7371 246C52.7371 245.552 52.7851 245.109 52.8811 244.672C52.9771 244.229 53.1237 243.832 53.3211 243.48C53.5184 243.123 53.7691 242.837 54.0731 242.624C54.3824 242.411 54.7451 242.304 55.1611 242.304C55.6944 242.304 56.0997 242.493 56.3771 242.872C56.6597 243.245 56.8011 243.755 56.8011 244.4C56.8011 244.848 56.7531 245.293 56.6571 245.736C56.5611 246.173 56.4144 246.571 56.2171 246.928C56.0197 247.28 55.7664 247.563 55.4571 247.776C55.1531 247.989 54.7931 248.096 54.3771 248.096ZM54.4571 247.44C54.7131 247.44 54.9371 247.357 55.1291 247.192C55.3264 247.021 55.4917 246.792 55.6251 246.504C55.7584 246.216 55.8571 245.888 55.9211 245.52C55.9904 245.147 56.0251 244.757 56.0251 244.352C56.0251 243.904 55.9451 243.56 55.7851 243.32C55.6304 243.08 55.3957 242.96 55.0811 242.96C54.8251 242.96 54.5984 243.045 54.4011 243.216C54.2091 243.381 54.0464 243.608 53.9131 243.896C53.7797 244.184 53.6784 244.515 53.6091 244.888C53.5451 245.256 53.5131 245.643 53.5131 246.048C53.5131 246.496 53.5931 246.84 53.7531 247.08C53.9131 247.32 54.1477 247.44 54.4571 247.44ZM59.1179 247.36L59.8299 243.336L58.6379 244.168L58.3099 243.592L60.1819 242.4H60.7099L59.8379 247.36H60.7899L60.6779 248H57.8619L57.9739 247.36H59.1179ZM66.3693 248.096C65.8359 248.096 65.4279 247.909 65.1453 247.536C64.8679 247.157 64.7293 246.645 64.7293 246C64.7293 245.552 64.7773 245.109 64.8733 244.672C64.9693 244.229 65.1159 243.832 65.3133 243.48C65.5106 243.123 65.7613 242.837 66.0653 242.624C66.3746 242.411 66.7373 242.304 67.1533 242.304C67.6866 242.304 68.0919 242.493 68.3693 242.872C68.6519 243.245 68.7933 243.755 68.7933 244.4C68.7933 244.848 68.7453 245.293 68.6493 245.736C68.5532 246.173 68.4066 246.571 68.2093 246.928C68.0119 247.28 67.7586 247.563 67.4493 247.776C67.1453 247.989 66.7853 248.096 66.3693 248.096ZM66.4493 247.44C66.7053 247.44 66.9293 247.357 67.1213 247.192C67.3186 247.021 67.4839 246.792 67.6173 246.504C67.7506 246.216 67.8493 245.888 67.9133 245.52C67.9826 245.147 68.0173 244.757 68.0173 244.352C68.0173 243.904 67.9373 243.56 67.7773 243.32C67.6226 243.08 67.3879 242.96 67.0733 242.96C66.8173 242.96 66.5906 243.045 66.3932 243.216C66.2013 243.381 66.0386 243.608 65.9053 243.896C65.7719 244.184 65.6706 244.515 65.6013 244.888C65.5373 245.256 65.5053 245.643 65.5053 246.048C65.5053 246.496 65.5853 246.84 65.7453 247.08C65.9053 247.32 66.1399 247.44 66.4493 247.44ZM73.3901 243.656C73.3901 243.933 73.3235 244.184 73.1901 244.408C73.0621 244.627 72.8915 244.827 72.6781 245.008C72.4648 245.189 72.2355 245.365 71.9901 245.536C71.7501 245.701 71.5155 245.875 71.2861 246.056C71.0621 246.232 70.8675 246.424 70.7021 246.632C70.5368 246.84 70.4275 247.077 70.3741 247.344H72.9181L72.8061 248H69.5901C69.5848 247.957 69.5795 247.909 69.5741 247.856C69.5688 247.803 69.5661 247.752 69.5661 247.704C69.5661 247.331 69.6381 247.003 69.7821 246.72C69.9315 246.432 70.1208 246.176 70.3501 245.952C70.5848 245.728 70.8301 245.523 71.0861 245.336C71.3475 245.149 71.5928 244.973 71.8221 244.808C72.0568 244.637 72.2461 244.464 72.3901 244.288C72.5395 244.112 72.6141 243.92 72.6141 243.712C72.6141 243.477 72.5341 243.291 72.3741 243.152C72.2141 243.013 72.0168 242.944 71.7821 242.944C71.5528 242.944 71.3448 242.987 71.1581 243.072C70.9768 243.157 70.7955 243.277 70.6141 243.432L70.2781 242.888C70.4968 242.712 70.7341 242.571 70.9901 242.464C71.2461 242.357 71.5395 242.304 71.8701 242.304C72.1741 242.304 72.4381 242.363 72.6621 242.48C72.8915 242.597 73.0701 242.757 73.1981 242.96C73.3261 243.163 73.3901 243.395 73.3901 243.656ZM78.3614 248.096C77.8281 248.096 77.4201 247.909 77.1374 247.536C76.8601 247.157 76.7214 246.645 76.7214 246C76.7214 245.552 76.7694 245.109 76.8654 244.672C76.9614 244.229 77.1081 243.832 77.3054 243.48C77.5028 243.123 77.7534 242.837 78.0574 242.624C78.3668 242.411 78.7294 242.304 79.1454 242.304C79.6788 242.304 80.0841 242.493 80.3614 242.872C80.6441 243.245 80.7854 243.755 80.7854 244.4C80.7854 244.848 80.7374 245.293 80.6414 245.736C80.5454 246.173 80.3988 246.571 80.2014 246.928C80.0041 247.28 79.7508 247.563 79.4414 247.776C79.1374 247.989 78.7774 248.096 78.3614 248.096ZM78.4414 247.44C78.6974 247.44 78.9214 247.357 79.1134 247.192C79.3108 247.021 79.4761 246.792 79.6094 246.504C79.7428 246.216 79.8414 245.888 79.9054 245.52C79.9748 245.147 80.0094 244.757 80.0094 244.352C80.0094 243.904 79.9294 243.56 79.7694 243.32C79.6148 243.08 79.3801 242.96 79.0654 242.96C78.8094 242.96 78.5828 243.045 78.3854 243.216C78.1934 243.381 78.0308 243.608 77.8974 243.896C77.7641 244.184 77.6628 244.515 77.5934 244.888C77.5294 245.256 77.4974 245.643 77.4974 246.048C77.4974 246.496 77.5774 246.84 77.7374 247.08C77.8974 247.32 78.1321 247.44 78.4414 247.44ZM82.3583 245.376L82.4543 244.792H82.7103C83.233 244.792 83.6516 244.699 83.9663 244.512C84.281 244.32 84.4383 244.061 84.4383 243.736C84.4383 243.491 84.353 243.296 84.1823 243.152C84.017 243.003 83.8036 242.928 83.5423 242.928C83.297 242.928 83.0863 242.968 82.9103 243.048C82.7343 243.123 82.577 243.211 82.4383 243.312L82.1583 242.768C82.345 242.635 82.5583 242.525 82.7983 242.44C83.0436 242.349 83.321 242.304 83.6303 242.304C83.9556 242.304 84.233 242.365 84.4623 242.488C84.697 242.611 84.8756 242.773 84.9983 242.976C85.121 243.173 85.1823 243.387 85.1823 243.616C85.1823 243.989 85.073 244.293 84.8543 244.528C84.6356 244.757 84.3156 244.936 83.8943 245.064C84.2303 245.181 84.489 245.355 84.6703 245.584C84.8516 245.813 84.9423 246.085 84.9423 246.4C84.9423 246.741 84.8543 247.04 84.6783 247.296C84.5023 247.552 84.2596 247.749 83.9503 247.888C83.6463 248.027 83.297 248.096 82.9023 248.096C82.5983 248.096 82.3103 248.056 82.0383 247.976C81.7716 247.891 81.545 247.776 81.3583 247.632L81.7823 247.064C81.9156 247.176 82.0756 247.269 82.2623 247.344C82.449 247.419 82.6623 247.456 82.9023 247.456C83.265 247.456 83.5663 247.368 83.8063 247.192C84.0463 247.016 84.1663 246.763 84.1663 246.432C84.1663 246.139 84.0516 245.891 83.8223 245.688C83.593 245.48 83.241 245.376 82.7663 245.376H82.3583ZM90.3536 248.096C89.8203 248.096 89.4123 247.909 89.1296 247.536C88.8523 247.157 88.7136 246.645 88.7136 246C88.7136 245.552 88.7616 245.109 88.8576 244.672C88.9536 244.229 89.1003 243.832 89.2976 243.48C89.495 243.123 89.7456 242.837 90.0496 242.624C90.359 242.411 90.7216 242.304 91.1376 242.304C91.671 242.304 92.0763 242.493 92.3536 242.872C92.6363 243.245 92.7776 243.755 92.7776 244.4C92.7776 244.848 92.7296 245.293 92.6336 245.736C92.5376 246.173 92.391 246.571 92.1936 246.928C91.9963 247.28 91.743 247.563 91.4336 247.776C91.1296 247.989 90.7696 248.096 90.3536 248.096ZM90.4336 247.44C90.6896 247.44 90.9136 247.357 91.1056 247.192C91.303 247.021 91.4683 246.792 91.6016 246.504C91.735 246.216 91.8336 245.888 91.8976 245.52C91.967 245.147 92.0016 244.757 92.0016 244.352C92.0016 243.904 91.9216 243.56 91.7616 243.32C91.607 243.08 91.3723 242.96 91.0576 242.96C90.8016 242.96 90.575 243.045 90.3776 243.216C90.1856 243.381 90.023 243.608 89.8896 243.896C89.7563 244.184 89.655 244.515 89.5856 244.888C89.5216 245.256 89.4896 245.643 89.4896 246.048C89.4896 246.496 89.5696 246.84 89.7296 247.08C89.8896 247.32 90.1243 247.44 90.4336 247.44ZM96.5265 246.792L96.3185 248H95.6145L95.8225 246.792H93.4385L93.5345 246.232L95.8785 242.344L96.4945 242.608L94.3745 246.152H95.9345L96.2225 244.56H96.9265L96.6385 246.152H97.3265L97.2145 246.792H96.5265ZM102.346 248.096C101.812 248.096 101.404 247.909 101.122 247.536C100.844 247.157 100.706 246.645 100.706 246C100.706 245.552 100.754 245.109 100.85 244.672C100.946 244.229 101.092 243.832 101.29 243.48C101.487 243.123 101.738 242.837 102.042 242.624C102.351 242.411 102.714 242.304 103.13 242.304C103.663 242.304 104.068 242.493 104.346 242.872C104.628 243.245 104.77 243.755 104.77 244.4C104.77 244.848 104.722 245.293 104.626 245.736C104.53 246.173 104.383 246.571 104.186 246.928C103.988 247.28 103.735 247.563 103.426 247.776C103.122 247.989 102.762 248.096 102.346 248.096ZM102.426 247.44C102.682 247.44 102.906 247.357 103.098 247.192C103.295 247.021 103.46 246.792 103.594 246.504C103.727 246.216 103.826 245.888 103.89 245.52C103.959 245.147 103.994 244.757 103.994 244.352C103.994 243.904 103.914 243.56 103.754 243.32C103.599 243.08 103.364 242.96 103.05 242.96C102.794 242.96 102.567 243.045 102.37 243.216C102.178 243.381 102.015 243.608 101.882 243.896C101.748 244.184 101.647 244.515 101.578 244.888C101.514 245.256 101.482 245.643 101.482 246.048C101.482 246.496 101.562 246.84 101.722 247.08C101.882 247.32 102.116 247.44 102.426 247.44ZM105.815 247.024C105.959 247.152 106.129 247.253 106.327 247.328C106.524 247.403 106.74 247.44 106.975 247.44C107.359 247.44 107.679 247.336 107.935 247.128C108.191 246.92 108.319 246.635 108.319 246.272C108.319 245.963 108.204 245.709 107.975 245.512C107.751 245.315 107.423 245.216 106.991 245.216H106.199L106.687 242.4H109.447L109.335 243.048H107.255L106.991 244.568H107.143C107.58 244.568 107.943 244.643 108.231 244.792C108.519 244.936 108.735 245.131 108.879 245.376C109.023 245.616 109.095 245.88 109.095 246.168C109.095 246.547 109.004 246.883 108.823 247.176C108.641 247.464 108.388 247.691 108.063 247.856C107.743 248.016 107.367 248.096 106.935 248.096C106.615 248.096 106.319 248.056 106.047 247.976C105.78 247.891 105.559 247.779 105.383 247.64L105.815 247.024ZM114.338 248.096C113.805 248.096 113.397 247.909 113.114 247.536C112.837 247.157 112.698 246.645 112.698 246C112.698 245.552 112.746 245.109 112.842 244.672C112.938 244.229 113.085 243.832 113.282 243.48C113.479 243.123 113.73 242.837 114.034 242.624C114.343 242.411 114.706 242.304 115.122 242.304C115.655 242.304 116.061 242.493 116.338 242.872C116.621 243.245 116.762 243.755 116.762 244.4C116.762 244.848 116.714 245.293 116.618 245.736C116.522 246.173 116.375 246.571 116.178 246.928C115.981 247.28 115.727 247.563 115.418 247.776C115.114 247.989 114.754 248.096 114.338 248.096ZM114.418 247.44C114.674 247.44 114.898 247.357 115.09 247.192C115.287 247.021 115.453 246.792 115.586 246.504C115.719 246.216 115.818 245.888 115.882 245.52C115.951 245.147 115.986 244.757 115.986 244.352C115.986 243.904 115.906 243.56 115.746 243.32C115.591 243.08 115.357 242.96 115.042 242.96C114.786 242.96 114.559 243.045 114.362 243.216C114.17 243.381 114.007 243.608 113.874 243.896C113.741 244.184 113.639 244.515 113.57 244.888C113.506 245.256 113.474 245.643 113.474 246.048C113.474 246.496 113.554 246.84 113.714 247.08C113.874 247.32 114.109 247.44 114.418 247.44ZM120.983 243.04C119.708 243.04 118.882 243.699 118.503 245.016C118.658 244.845 118.842 244.709 119.055 244.608C119.274 244.507 119.519 244.456 119.791 244.456C120.079 244.456 120.335 244.523 120.559 244.656C120.788 244.784 120.967 244.965 121.095 245.2C121.223 245.429 121.287 245.696 121.287 246C121.287 246.389 121.204 246.744 121.039 247.064C120.874 247.379 120.642 247.629 120.343 247.816C120.044 248.003 119.695 248.096 119.295 248.096C118.959 248.096 118.66 248.021 118.399 247.872C118.138 247.723 117.932 247.507 117.783 247.224C117.639 246.941 117.567 246.597 117.567 246.192C117.567 245.717 117.636 245.256 117.775 244.808C117.919 244.355 118.132 243.947 118.415 243.584C118.703 243.216 119.063 242.925 119.495 242.712C119.927 242.493 120.431 242.384 121.007 242.384C121.055 242.384 121.116 242.387 121.191 242.392C121.271 242.392 121.338 242.395 121.391 242.4L121.279 243.056C121.236 243.051 121.186 243.048 121.127 243.048C121.074 243.043 121.026 243.04 120.983 243.04ZM119.591 245.056C119.127 245.056 118.708 245.288 118.335 245.752C118.319 245.88 118.311 246.021 118.311 246.176C118.311 246.565 118.407 246.877 118.599 247.112C118.791 247.341 119.034 247.456 119.327 247.456C119.556 247.456 119.762 247.395 119.943 247.272C120.13 247.149 120.276 246.984 120.383 246.776C120.49 246.563 120.543 246.328 120.543 246.072C120.543 245.768 120.452 245.523 120.271 245.336C120.09 245.149 119.863 245.056 119.591 245.056ZM126.33 248.096C125.797 248.096 125.389 247.909 125.106 247.536C124.829 247.157 124.69 246.645 124.69 246C124.69 245.552 124.738 245.109 124.834 244.672C124.93 244.229 125.077 243.832 125.274 243.48C125.472 243.123 125.722 242.837 126.026 242.624C126.336 242.411 126.698 242.304 127.114 242.304C127.648 242.304 128.053 242.493 128.33 242.872C128.613 243.245 128.754 243.755 128.754 244.4C128.754 244.848 128.706 245.293 128.61 245.736C128.514 246.173 128.368 246.571 128.17 246.928C127.973 247.28 127.72 247.563 127.41 247.776C127.106 247.989 126.746 248.096 126.33 248.096ZM126.41 247.44C126.666 247.44 126.89 247.357 127.082 247.192C127.28 247.021 127.445 246.792 127.578 246.504C127.712 246.216 127.81 245.888 127.874 245.52C127.944 245.147 127.978 244.757 127.978 244.352C127.978 243.904 127.898 243.56 127.738 243.32C127.584 243.08 127.349 242.96 127.034 242.96C126.778 242.96 126.552 243.045 126.354 243.216C126.162 243.381 126 243.608 125.866 243.896C125.733 244.184 125.632 244.515 125.562 244.888C125.498 245.256 125.466 245.643 125.466 246.048C125.466 246.496 125.546 246.84 125.706 247.08C125.866 247.32 126.101 247.44 126.41 247.44ZM130.063 248C130.175 247.328 130.306 246.749 130.455 246.264C130.61 245.779 130.791 245.355 130.999 244.992C131.212 244.629 131.466 244.296 131.759 243.992C132.052 243.688 132.394 243.376 132.783 243.056H130.119L130.231 242.4H133.775L133.679 242.976C133.322 243.275 133.01 243.563 132.743 243.84C132.476 244.112 132.244 244.389 132.047 244.672C131.855 244.949 131.687 245.251 131.543 245.576C131.404 245.901 131.279 246.261 131.167 246.656C131.06 247.051 130.962 247.499 130.871 248H130.063ZM138.322 248.096C137.789 248.096 137.381 247.909 137.098 247.536C136.821 247.157 136.682 246.645 136.682 246C136.682 245.552 136.73 245.109 136.826 244.672C136.922 244.229 137.069 243.832 137.266 243.48C137.464 243.123 137.714 242.837 138.018 242.624C138.328 242.411 138.69 242.304 139.106 242.304C139.64 242.304 140.045 242.493 140.322 242.872C140.605 243.245 140.746 243.755 140.746 244.4C140.746 244.848 140.698 245.293 140.602 245.736C140.506 246.173 140.36 246.571 140.162 246.928C139.965 247.28 139.712 247.563 139.402 247.776C139.098 247.989 138.738 248.096 138.322 248.096ZM138.402 247.44C138.658 247.44 138.882 247.357 139.074 247.192C139.272 247.021 139.437 246.792 139.57 246.504C139.704 246.216 139.802 245.888 139.866 245.52C139.936 245.147 139.97 244.757 139.97 244.352C139.97 243.904 139.89 243.56 139.73 243.32C139.576 243.08 139.341 242.96 139.026 242.96C138.77 242.96 138.544 243.045 138.346 243.216C138.154 243.381 137.992 243.608 137.858 243.896C137.725 244.184 137.624 244.515 137.554 244.888C137.49 245.256 137.458 245.643 137.458 246.048C137.458 246.496 137.538 246.84 137.698 247.08C137.858 247.32 138.093 247.44 138.402 247.44ZM142.903 244.928C142.647 244.768 142.455 244.597 142.327 244.416C142.205 244.229 142.143 244.008 142.143 243.752C142.143 243.475 142.223 243.227 142.383 243.008C142.543 242.789 142.754 242.619 143.015 242.496C143.282 242.368 143.575 242.304 143.895 242.304C144.221 242.304 144.503 242.365 144.743 242.488C144.983 242.611 145.167 242.773 145.295 242.976C145.429 243.173 145.495 243.384 145.495 243.608C145.495 243.96 145.389 244.245 145.175 244.464C144.967 244.677 144.661 244.859 144.255 245.008C144.618 245.179 144.885 245.373 145.055 245.592C145.231 245.811 145.319 246.077 145.319 246.392C145.319 246.739 145.223 247.04 145.031 247.296C144.845 247.552 144.591 247.749 144.271 247.888C143.951 248.027 143.591 248.096 143.191 248.096C142.845 248.096 142.533 248.035 142.255 247.912C141.978 247.789 141.759 247.619 141.599 247.4C141.439 247.181 141.359 246.931 141.359 246.648C141.359 246.227 141.487 245.877 141.743 245.6C142.005 245.317 142.391 245.093 142.903 244.928ZM143.855 242.896C143.69 242.896 143.53 242.928 143.375 242.992C143.226 243.056 143.103 243.152 143.007 243.28C142.911 243.403 142.863 243.557 142.863 243.744C142.863 243.947 142.943 244.131 143.103 244.296C143.269 244.456 143.471 244.595 143.711 244.712C144.005 244.627 144.255 244.496 144.463 244.32C144.671 244.139 144.775 243.931 144.775 243.696C144.775 243.477 144.69 243.291 144.519 243.136C144.354 242.976 144.133 242.896 143.855 242.896ZM143.271 247.456C143.495 247.456 143.706 247.416 143.903 247.336C144.101 247.251 144.258 247.131 144.375 246.976C144.498 246.821 144.559 246.637 144.559 246.424C144.559 246.189 144.466 245.973 144.279 245.776C144.093 245.579 143.826 245.416 143.479 245.288C143.25 245.336 143.031 245.416 142.823 245.528C142.615 245.635 142.445 245.773 142.311 245.944C142.183 246.109 142.119 246.307 142.119 246.536C142.119 246.797 142.229 247.016 142.447 247.192C142.666 247.368 142.941 247.456 143.271 247.456ZM150.315 248.096C149.781 248.096 149.373 247.909 149.091 247.536C148.813 247.157 148.675 246.645 148.675 246C148.675 245.552 148.723 245.109 148.819 244.672C148.915 244.229 149.061 243.832 149.259 243.48C149.456 243.123 149.707 242.837 150.011 242.624C150.32 242.411 150.683 242.304 151.099 242.304C151.632 242.304 152.037 242.493 152.315 242.872C152.597 243.245 152.739 243.755 152.739 244.4C152.739 244.848 152.691 245.293 152.595 245.736C152.499 246.173 152.352 246.571 152.155 246.928C151.957 247.28 151.704 247.563 151.395 247.776C151.091 247.989 150.731 248.096 150.315 248.096ZM150.395 247.44C150.651 247.44 150.875 247.357 151.067 247.192C151.264 247.021 151.429 246.792 151.563 246.504C151.696 246.216 151.795 245.888 151.859 245.52C151.928 245.147 151.963 244.757 151.963 244.352C151.963 243.904 151.883 243.56 151.723 243.32C151.568 243.08 151.333 242.96 151.019 242.96C150.763 242.96 150.536 243.045 150.339 243.216C150.147 243.381 149.984 243.608 149.851 243.896C149.717 244.184 149.616 244.515 149.547 244.888C149.483 245.256 149.451 245.643 149.451 246.048C149.451 246.496 149.531 246.84 149.691 247.08C149.851 247.32 150.085 247.44 150.395 247.44ZM154.991 247.44C155.317 247.44 155.623 247.272 155.911 246.936C156.199 246.595 156.402 246.056 156.519 245.32C156.146 245.667 155.738 245.84 155.295 245.84C155.018 245.84 154.762 245.779 154.527 245.656C154.293 245.528 154.103 245.347 153.959 245.112C153.821 244.877 153.751 244.597 153.751 244.272C153.751 243.904 153.837 243.573 154.007 243.28C154.178 242.981 154.413 242.744 154.711 242.568C155.01 242.392 155.346 242.304 155.719 242.304C156.237 242.304 156.645 242.467 156.943 242.792C157.087 242.947 157.197 243.128 157.271 243.336C157.346 243.544 157.383 243.792 157.383 244.08C157.383 244.581 157.335 245.072 157.239 245.552C157.149 246.027 157.005 246.456 156.807 246.84C156.615 247.224 156.362 247.531 156.047 247.76C155.738 247.984 155.367 248.096 154.935 248.096C154.626 248.096 154.346 248.037 154.095 247.92C153.85 247.803 153.642 247.653 153.471 247.472L154.023 246.96C154.157 247.109 154.301 247.227 154.455 247.312C154.615 247.397 154.794 247.44 154.991 247.44ZM156.639 244.176C156.639 243.776 156.549 243.472 156.367 243.264C156.191 243.051 155.954 242.944 155.655 242.944C155.442 242.944 155.247 243 155.071 243.112C154.895 243.224 154.754 243.376 154.647 243.568C154.546 243.76 154.495 243.979 154.495 244.224C154.495 244.533 154.581 244.781 154.751 244.968C154.927 245.155 155.159 245.248 155.447 245.248C155.65 245.248 155.853 245.2 156.055 245.104C156.263 245.003 156.45 244.861 156.615 244.68C156.626 244.584 156.631 244.499 156.631 244.424C156.637 244.349 156.639 244.267 156.639 244.176ZM162.251 247.36L162.963 243.336L161.771 244.168L161.443 243.592L163.315 242.4H163.843L162.971 247.36H163.923L163.811 248H160.995L161.107 247.36H162.251ZM167.104 248.096C166.57 248.096 166.162 247.909 165.88 247.536C165.602 247.157 165.464 246.645 165.464 246C165.464 245.552 165.512 245.109 165.608 244.672C165.704 244.229 165.85 243.832 166.048 243.48C166.245 243.123 166.496 242.837 166.8 242.624C167.109 242.411 167.472 242.304 167.888 242.304C168.421 242.304 168.826 242.493 169.104 242.872C169.386 243.245 169.528 243.755 169.528 244.4C169.528 244.848 169.48 245.293 169.384 245.736C169.288 246.173 169.141 246.571 168.944 246.928C168.746 247.28 168.493 247.563 168.184 247.776C167.88 247.989 167.52 248.096 167.104 248.096ZM167.184 247.44C167.44 247.44 167.664 247.357 167.856 247.192C168.053 247.021 168.218 246.792 168.352 246.504C168.485 246.216 168.584 245.888 168.648 245.52C168.717 245.147 168.752 244.757 168.752 244.352C168.752 243.904 168.672 243.56 168.512 243.32C168.357 243.08 168.122 242.96 167.808 242.96C167.552 242.96 167.325 243.045 167.128 243.216C166.936 243.381 166.773 243.608 166.64 243.896C166.506 244.184 166.405 244.515 166.336 244.888C166.272 245.256 166.24 245.643 166.24 246.048C166.24 246.496 166.32 246.84 166.48 247.08C166.64 247.32 166.874 247.44 167.184 247.44ZM174.243 247.36L174.955 243.336L173.763 244.168L173.435 243.592L175.307 242.4H175.835L174.963 247.36H175.915L175.803 248H172.987L173.099 247.36H174.243ZM179.04 247.36L179.752 243.336L178.56 244.168L178.232 243.592L180.104 242.4H180.632L179.76 247.36H180.712L180.6 248H177.784L177.896 247.36H179.04ZM186.235 247.36L186.947 243.336L185.755 244.168L185.427 243.592L187.299 242.4H187.827L186.955 247.36H187.907L187.795 248H184.979L185.091 247.36H186.235ZM193.312 243.656C193.312 243.933 193.245 244.184 193.112 244.408C192.984 244.627 192.813 244.827 192.6 245.008C192.387 245.189 192.157 245.365 191.912 245.536C191.672 245.701 191.437 245.875 191.208 246.056C190.984 246.232 190.789 246.424 190.624 246.632C190.459 246.84 190.349 247.077 190.296 247.344H192.84L192.728 248H189.512C189.507 247.957 189.501 247.909 189.496 247.856C189.491 247.803 189.488 247.752 189.488 247.704C189.488 247.331 189.56 247.003 189.704 246.72C189.853 246.432 190.043 246.176 190.272 245.952C190.507 245.728 190.752 245.523 191.008 245.336C191.269 245.149 191.515 244.973 191.744 244.808C191.979 244.637 192.168 244.464 192.312 244.288C192.461 244.112 192.536 243.92 192.536 243.712C192.536 243.477 192.456 243.291 192.296 243.152C192.136 243.013 191.939 242.944 191.704 242.944C191.475 242.944 191.267 242.987 191.08 243.072C190.899 243.157 190.717 243.277 190.536 243.432L190.2 242.888C190.419 242.712 190.656 242.571 190.912 242.464C191.168 242.357 191.461 242.304 191.792 242.304C192.096 242.304 192.36 242.363 192.584 242.48C192.813 242.597 192.992 242.757 193.12 242.96C193.248 243.163 193.312 243.395 193.312 243.656ZM198.227 247.36L198.939 243.336L197.747 244.168L197.419 243.592L199.291 242.4H199.819L198.947 247.36H199.899L199.787 248H196.971L197.083 247.36H198.227ZM202.28 245.376L202.376 244.792H202.632C203.155 244.792 203.574 244.699 203.888 244.512C204.203 244.32 204.36 244.061 204.36 243.736C204.36 243.491 204.275 243.296 204.104 243.152C203.939 243.003 203.726 242.928 203.464 242.928C203.219 242.928 203.008 242.968 202.832 243.048C202.656 243.123 202.499 243.211 202.36 243.312L202.08 242.768C202.267 242.635 202.48 242.525 202.72 242.44C202.966 242.349 203.243 242.304 203.552 242.304C203.878 242.304 204.155 242.365 204.384 242.488C204.619 242.611 204.798 242.773 204.92 242.976C205.043 243.173 205.104 243.387 205.104 243.616C205.104 243.989 204.995 244.293 204.776 244.528C204.558 244.757 204.238 244.936 203.816 245.064C204.152 245.181 204.411 245.355 204.592 245.584C204.774 245.813 204.864 246.085 204.864 246.4C204.864 246.741 204.776 247.04 204.6 247.296C204.424 247.552 204.182 247.749 203.872 247.888C203.568 248.027 203.219 248.096 202.824 248.096C202.52 248.096 202.232 248.056 201.96 247.976C201.694 247.891 201.467 247.776 201.28 247.632L201.704 247.064C201.838 247.176 201.998 247.269 202.184 247.344C202.371 247.419 202.584 247.456 202.824 247.456C203.187 247.456 203.488 247.368 203.728 247.192C203.968 247.016 204.088 246.763 204.088 246.432C204.088 246.139 203.974 245.891 203.744 245.688C203.515 245.48 203.163 245.376 202.688 245.376H202.28ZM210.22 247.36L210.932 243.336L209.74 244.168L209.412 243.592L211.284 242.4H211.812L210.94 247.36H211.892L211.78 248H208.964L209.076 247.36H210.22ZM216.448 246.792L216.24 248H215.536L215.744 246.792H213.36L213.456 246.232L215.8 242.344L216.416 242.608L214.296 246.152H215.856L216.144 244.56H216.848L216.56 246.152H217.248L217.136 246.792H216.448ZM222.212 247.36L222.924 243.336L221.732 244.168L221.404 243.592L223.276 242.4H223.804L222.932 247.36H223.884L223.772 248H220.956L221.068 247.36H222.212ZM225.737 247.024C225.881 247.152 226.051 247.253 226.249 247.328C226.446 247.403 226.662 247.44 226.897 247.44C227.281 247.44 227.601 247.336 227.857 247.128C228.113 246.92 228.241 246.635 228.241 246.272C228.241 245.963 228.126 245.709 227.897 245.512C227.673 245.315 227.345 245.216 226.913 245.216H226.121L226.609 242.4H229.369L229.257 243.048H227.177L226.913 244.568H227.065C227.502 244.568 227.865 244.643 228.153 244.792C228.441 244.936 228.657 245.131 228.801 245.376C228.945 245.616 229.017 245.88 229.017 246.168C229.017 246.547 228.926 246.883 228.745 247.176C228.563 247.464 228.31 247.691 227.985 247.856C227.665 248.016 227.289 248.096 226.857 248.096C226.537 248.096 226.241 248.056 225.969 247.976C225.702 247.891 225.481 247.779 225.305 247.64L225.737 247.024ZM234.204 247.36L234.916 243.336L233.724 244.168L233.396 243.592L235.268 242.4H235.796L234.924 247.36H235.876L235.764 248H232.948L233.06 247.36H234.204ZM240.905 243.04C239.63 243.04 238.803 243.699 238.425 245.016C238.579 244.845 238.763 244.709 238.977 244.608C239.195 244.507 239.441 244.456 239.713 244.456C240.001 244.456 240.257 244.523 240.481 244.656C240.71 244.784 240.889 244.965 241.017 245.2C241.145 245.429 241.209 245.696 241.209 246C241.209 246.389 241.126 246.744 240.961 247.064C240.795 247.379 240.563 247.629 240.265 247.816C239.966 248.003 239.617 248.096 239.217 248.096C238.881 248.096 238.582 248.021 238.321 247.872C238.059 247.723 237.854 247.507 237.705 247.224C237.561 246.941 237.489 246.597 237.489 246.192C237.489 245.717 237.558 245.256 237.697 244.808C237.841 244.355 238.054 243.947 238.337 243.584C238.625 243.216 238.985 242.925 239.417 242.712C239.849 242.493 240.353 242.384 240.929 242.384C240.977 242.384 241.038 242.387 241.113 242.392C241.193 242.392 241.259 242.395 241.313 242.4L241.201 243.056C241.158 243.051 241.107 243.048 241.049 243.048C240.995 243.043 240.947 243.04 240.905 243.04ZM239.513 245.056C239.049 245.056 238.63 245.288 238.257 245.752C238.241 245.88 238.233 246.021 238.233 246.176C238.233 246.565 238.329 246.877 238.521 247.112C238.713 247.341 238.955 247.456 239.249 247.456C239.478 247.456 239.683 247.395 239.865 247.272C240.051 247.149 240.198 246.984 240.305 246.776C240.411 246.563 240.465 246.328 240.465 246.072C240.465 245.768 240.374 245.523 240.193 245.336C240.011 245.149 239.785 245.056 239.513 245.056ZM246.196 247.36L246.908 243.336L245.716 244.168L245.388 243.592L247.26 242.4H247.788L246.916 247.36H247.868L247.756 248H244.94L245.052 247.36H246.196ZM249.985 248C250.097 247.328 250.228 246.749 250.377 246.264C250.532 245.779 250.713 245.355 250.921 244.992C251.134 244.629 251.388 244.296 251.681 243.992C251.974 243.688 252.316 243.376 252.705 243.056H250.041L250.153 242.4H253.697L253.601 242.976C253.244 243.275 252.932 243.563 252.665 243.84C252.398 244.112 252.166 244.389 251.969 244.672C251.777 244.949 251.609 245.251 251.465 245.576C251.326 245.901 251.201 246.261 251.089 246.656C250.982 247.051 250.884 247.499 250.793 248H249.985ZM258.188 247.36L258.9 243.336L257.708 244.168L257.38 243.592L259.252 242.4H259.78L258.908 247.36H259.86L259.748 248H256.932L257.044 247.36H258.188ZM262.825 244.928C262.569 244.768 262.377 244.597 262.249 244.416C262.126 244.229 262.065 244.008 262.065 243.752C262.065 243.475 262.145 243.227 262.305 243.008C262.465 242.789 262.676 242.619 262.937 242.496C263.204 242.368 263.497 242.304 263.817 242.304C264.142 242.304 264.425 242.365 264.665 242.488C264.905 242.611 265.089 242.773 265.217 242.976C265.35 243.173 265.417 243.384 265.417 243.608C265.417 243.96 265.31 244.245 265.097 244.464C264.889 244.677 264.582 244.859 264.177 245.008C264.54 245.179 264.806 245.373 264.977 245.592C265.153 245.811 265.241 246.077 265.241 246.392C265.241 246.739 265.145 247.04 264.953 247.296C264.766 247.552 264.513 247.749 264.193 247.888C263.873 248.027 263.513 248.096 263.113 248.096C262.766 248.096 262.454 248.035 262.177 247.912C261.9 247.789 261.681 247.619 261.521 247.4C261.361 247.181 261.281 246.931 261.281 246.648C261.281 246.227 261.409 245.877 261.665 245.6C261.926 245.317 262.313 245.093 262.825 244.928ZM263.777 242.896C263.612 242.896 263.452 242.928 263.297 242.992C263.148 243.056 263.025 243.152 262.929 243.28C262.833 243.403 262.785 243.557 262.785 243.744C262.785 243.947 262.865 244.131 263.025 244.296C263.19 244.456 263.393 244.595 263.633 244.712C263.926 244.627 264.177 244.496 264.385 244.32C264.593 244.139 264.697 243.931 264.697 243.696C264.697 243.477 264.612 243.291 264.441 243.136C264.276 242.976 264.054 242.896 263.777 242.896ZM263.193 247.456C263.417 247.456 263.628 247.416 263.825 247.336C264.022 247.251 264.18 247.131 264.297 246.976C264.42 246.821 264.481 246.637 264.481 246.424C264.481 246.189 264.388 245.973 264.201 245.776C264.014 245.579 263.748 245.416 263.401 245.288C263.172 245.336 262.953 245.416 262.745 245.528C262.537 245.635 262.366 245.773 262.233 245.944C262.105 246.109 262.041 246.307 262.041 246.536C262.041 246.797 262.15 247.016 262.369 247.192C262.588 247.368 262.862 247.456 263.193 247.456ZM270.18 247.36L270.892 243.336L269.7 244.168L269.372 243.592L271.244 242.4H271.772L270.9 247.36H271.852L271.74 248H268.924L269.036 247.36H270.18ZM274.913 247.44C275.239 247.44 275.545 247.272 275.833 246.936C276.121 246.595 276.324 246.056 276.441 245.32C276.068 245.667 275.66 245.84 275.217 245.84C274.94 245.84 274.684 245.779 274.449 245.656C274.215 245.528 274.025 245.347 273.881 245.112C273.743 244.877 273.673 244.597 273.673 244.272C273.673 243.904 273.759 243.573 273.929 243.28C274.1 242.981 274.335 242.744 274.633 242.568C274.932 242.392 275.268 242.304 275.641 242.304C276.159 242.304 276.567 242.467 276.865 242.792C277.009 242.947 277.119 243.128 277.193 243.336C277.268 243.544 277.305 243.792 277.305 244.08C277.305 244.581 277.257 245.072 277.161 245.552C277.071 246.027 276.927 246.456 276.729 246.84C276.537 247.224 276.284 247.531 275.969 247.76C275.66 247.984 275.289 248.096 274.857 248.096C274.548 248.096 274.268 248.037 274.017 247.92C273.772 247.803 273.564 247.653 273.393 247.472L273.945 246.96C274.079 247.109 274.223 247.227 274.377 247.312C274.537 247.397 274.716 247.44 274.913 247.44ZM276.561 244.176C276.561 243.776 276.471 243.472 276.289 243.264C276.113 243.051 275.876 242.944 275.577 242.944C275.364 242.944 275.169 243 274.993 243.112C274.817 243.224 274.676 243.376 274.569 243.568C274.468 243.76 274.417 243.979 274.417 244.224C274.417 244.533 274.503 244.781 274.673 244.968C274.849 245.155 275.081 245.248 275.369 245.248C275.572 245.248 275.775 245.2 275.977 245.104C276.185 245.003 276.372 244.861 276.537 244.68C276.548 244.584 276.553 244.499 276.553 244.424C276.559 244.349 276.561 244.267 276.561 244.176ZM284.453 243.656C284.453 243.933 284.386 244.184 284.253 244.408C284.125 244.627 283.954 244.827 283.741 245.008C283.527 245.189 283.298 245.365 283.053 245.536C282.813 245.701 282.578 245.875 282.349 246.056C282.125 246.232 281.93 246.424 281.765 246.632C281.599 246.84 281.49 247.077 281.437 247.344H283.981L283.869 248H280.653C280.647 247.957 280.642 247.909 280.637 247.856C280.631 247.803 280.629 247.752 280.629 247.704C280.629 247.331 280.701 247.003 280.845 246.72C280.994 246.432 281.183 246.176 281.413 245.952C281.647 245.728 281.893 245.523 282.149 245.336C282.41 245.149 282.655 244.973 282.885 244.808C283.119 244.637 283.309 244.464 283.453 244.288C283.602 244.112 283.677 243.92 283.677 243.712C283.677 243.477 283.597 243.291 283.437 243.152C283.277 243.013 283.079 242.944 282.845 242.944C282.615 242.944 282.407 242.987 282.221 243.072C282.039 243.157 281.858 243.277 281.677 243.432L281.341 242.888C281.559 242.712 281.797 242.571 282.053 242.464C282.309 242.357 282.602 242.304 282.933 242.304C283.237 242.304 283.501 242.363 283.725 242.48C283.954 242.597 284.133 242.757 284.261 242.96C284.389 243.163 284.453 243.395 284.453 243.656ZM287.026 248.096C286.492 248.096 286.084 247.909 285.802 247.536C285.524 247.157 285.386 246.645 285.386 246C285.386 245.552 285.434 245.109 285.53 244.672C285.626 244.229 285.772 243.832 285.97 243.48C286.167 243.123 286.418 242.837 286.722 242.624C287.031 242.411 287.394 242.304 287.81 242.304C288.343 242.304 288.748 242.493 289.026 242.872C289.308 243.245 289.45 243.755 289.45 244.4C289.45 244.848 289.402 245.293 289.306 245.736C289.209 246.173 289.063 246.571 288.866 246.928C288.668 247.28 288.415 247.563 288.106 247.776C287.802 247.989 287.442 248.096 287.026 248.096ZM287.106 247.44C287.362 247.44 287.586 247.357 287.778 247.192C287.975 247.021 288.14 246.792 288.274 246.504C288.407 246.216 288.506 245.888 288.57 245.52C288.639 245.147 288.674 244.757 288.674 244.352C288.674 243.904 288.594 243.56 288.434 243.32C288.279 243.08 288.044 242.96 287.73 242.96C287.474 242.96 287.247 243.045 287.049 243.216C286.858 243.381 286.695 243.608 286.562 243.896C286.428 244.184 286.327 244.515 286.258 244.888C286.194 245.256 286.162 245.643 286.162 246.048C286.162 246.496 286.242 246.84 286.402 247.08C286.562 247.32 286.796 247.44 287.106 247.44ZM296.445 243.656C296.445 243.933 296.378 244.184 296.245 244.408C296.117 244.627 295.946 244.827 295.733 245.008C295.519 245.189 295.29 245.365 295.045 245.536C294.805 245.701 294.57 245.875 294.341 246.056C294.117 246.232 293.922 246.424 293.757 246.632C293.591 246.84 293.482 247.077 293.429 247.344H295.973L295.861 248H292.645C292.639 247.957 292.634 247.909 292.629 247.856C292.623 247.803 292.621 247.752 292.621 247.704C292.621 247.331 292.693 247.003 292.837 246.72C292.986 246.432 293.175 246.176 293.405 245.952C293.639 245.728 293.885 245.523 294.141 245.336C294.402 245.149 294.647 244.973 294.877 244.808C295.111 244.637 295.301 244.464 295.445 244.288C295.594 244.112 295.669 243.92 295.669 243.712C295.669 243.477 295.589 243.291 295.429 243.152C295.269 243.013 295.071 242.944 294.837 242.944C294.607 242.944 294.399 242.987 294.213 243.072C294.031 243.157 293.85 243.277 293.669 243.432L293.333 242.888C293.551 242.712 293.789 242.571 294.045 242.464C294.301 242.357 294.594 242.304 294.925 242.304C295.229 242.304 295.493 242.363 295.717 242.48C295.946 242.597 296.125 242.757 296.253 242.96C296.381 243.163 296.445 243.395 296.445 243.656ZM298.962 247.36L299.674 243.336L298.482 244.168L298.154 243.592L300.026 242.4H300.554L299.682 247.36H300.634L300.522 248H297.706L297.818 247.36H298.962ZM308.437 243.656C308.437 243.933 308.37 244.184 308.237 244.408C308.109 244.627 307.938 244.827 307.725 245.008C307.512 245.189 307.282 245.365 307.037 245.536C306.797 245.701 306.562 245.875 306.333 246.056C306.109 246.232 305.914 246.424 305.749 246.632C305.584 246.84 305.474 247.077 305.421 247.344H307.965L307.853 248H304.637C304.632 247.957 304.626 247.909 304.621 247.856C304.616 247.803 304.613 247.752 304.613 247.704C304.613 247.331 304.685 247.003 304.829 246.72C304.978 246.432 305.168 246.176 305.397 245.952C305.632 245.728 305.877 245.523 306.133 245.336C306.394 245.149 306.64 244.973 306.869 244.808C307.104 244.637 307.293 244.464 307.437 244.288C307.586 244.112 307.661 243.92 307.661 243.712C307.661 243.477 307.581 243.291 307.421 243.152C307.261 243.013 307.064 242.944 306.829 242.944C306.6 242.944 306.392 242.987 306.205 243.072C306.024 243.157 305.842 243.277 305.661 243.432L305.325 242.888C305.544 242.712 305.781 242.571 306.037 242.464C306.293 242.357 306.586 242.304 306.917 242.304C307.221 242.304 307.485 242.363 307.709 242.48C307.938 242.597 308.117 242.757 308.245 242.96C308.373 243.163 308.437 243.395 308.437 243.656ZM313.234 243.656C313.234 243.933 313.167 244.184 313.034 244.408C312.906 244.627 312.735 244.827 312.522 245.008C312.309 245.189 312.079 245.365 311.834 245.536C311.594 245.701 311.359 245.875 311.13 246.056C310.906 246.232 310.711 246.424 310.546 246.632C310.381 246.84 310.271 247.077 310.218 247.344H312.762L312.65 248H309.434C309.429 247.957 309.423 247.909 309.418 247.856C309.413 247.803 309.41 247.752 309.41 247.704C309.41 247.331 309.482 247.003 309.626 246.72C309.775 246.432 309.965 246.176 310.194 245.952C310.429 245.728 310.674 245.523 310.93 245.336C311.191 245.149 311.437 244.973 311.666 244.808C311.901 244.637 312.09 244.464 312.234 244.288C312.383 244.112 312.458 243.92 312.458 243.712C312.458 243.477 312.378 243.291 312.218 243.152C312.058 243.013 311.861 242.944 311.626 242.944C311.397 242.944 311.189 242.987 311.002 243.072C310.821 243.157 310.639 243.277 310.458 243.432L310.122 242.888C310.341 242.712 310.578 242.571 310.834 242.464C311.09 242.357 311.383 242.304 311.714 242.304C312.018 242.304 312.282 242.363 312.506 242.48C312.735 242.597 312.914 242.757 313.042 242.96C313.17 243.163 313.234 243.395 313.234 243.656ZM320.429 243.656C320.429 243.933 320.363 244.184 320.229 244.408C320.101 244.627 319.931 244.827 319.717 245.008C319.504 245.189 319.275 245.365 319.029 245.536C318.789 245.701 318.555 245.875 318.325 246.056C318.101 246.232 317.907 246.424 317.741 246.632C317.576 246.84 317.467 247.077 317.413 247.344H319.957L319.845 248H316.629C316.624 247.957 316.619 247.909 316.613 247.856C316.608 247.803 316.605 247.752 316.605 247.704C316.605 247.331 316.677 247.003 316.821 246.72C316.971 246.432 317.16 246.176 317.389 245.952C317.624 245.728 317.869 245.523 318.125 245.336C318.387 245.149 318.632 244.973 318.861 244.808C319.096 244.637 319.285 244.464 319.429 244.288C319.579 244.112 319.653 243.92 319.653 243.712C319.653 243.477 319.573 243.291 319.413 243.152C319.253 243.013 319.056 242.944 318.821 242.944C318.592 242.944 318.384 242.987 318.197 243.072C318.016 243.157 317.835 243.277 317.653 243.432L317.317 242.888C317.536 242.712 317.773 242.571 318.029 242.464C318.285 242.357 318.579 242.304 318.909 242.304C319.213 242.304 319.477 242.363 319.701 242.48C319.931 242.597 320.109 242.757 320.237 242.96C320.365 243.163 320.429 243.395 320.429 243.656ZM322.202 245.376L322.298 244.792H322.554C323.077 244.792 323.495 244.699 323.81 244.512C324.125 244.32 324.282 244.061 324.282 243.736C324.282 243.491 324.197 243.296 324.026 243.152C323.861 243.003 323.647 242.928 323.386 242.928C323.141 242.928 322.93 242.968 322.754 243.048C322.578 243.123 322.421 243.211 322.282 243.312L322.002 242.768C322.189 242.635 322.402 242.525 322.642 242.44C322.887 242.349 323.165 242.304 323.474 242.304C323.799 242.304 324.077 242.365 324.306 242.488C324.541 242.611 324.719 242.773 324.842 242.976C324.965 243.173 325.026 243.387 325.026 243.616C325.026 243.989 324.917 244.293 324.698 244.528C324.479 244.757 324.159 244.936 323.738 245.064C324.074 245.181 324.333 245.355 324.514 245.584C324.695 245.813 324.786 246.085 324.786 246.4C324.786 246.741 324.698 247.04 324.522 247.296C324.346 247.552 324.103 247.749 323.794 247.888C323.49 248.027 323.141 248.096 322.746 248.096C322.442 248.096 322.154 248.056 321.882 247.976C321.615 247.891 321.389 247.776 321.202 247.632L321.626 247.064C321.759 247.176 321.919 247.269 322.106 247.344C322.293 247.419 322.506 247.456 322.746 247.456C323.109 247.456 323.41 247.368 323.65 247.192C323.89 247.016 324.01 246.763 324.01 246.432C324.01 246.139 323.895 245.891 323.666 245.688C323.437 245.48 323.085 245.376 322.61 245.376H322.202ZM332.421 243.656C332.421 243.933 332.355 244.184 332.221 244.408C332.093 244.627 331.923 244.827 331.709 245.008C331.496 245.189 331.267 245.365 331.021 245.536C330.781 245.701 330.547 245.875 330.317 246.056C330.093 246.232 329.899 246.424 329.733 246.632C329.568 246.84 329.459 247.077 329.405 247.344H331.949L331.837 248H328.621C328.616 247.957 328.611 247.909 328.605 247.856C328.6 247.803 328.597 247.752 328.597 247.704C328.597 247.331 328.669 247.003 328.813 246.72C328.963 246.432 329.152 246.176 329.381 245.952C329.616 245.728 329.861 245.523 330.117 245.336C330.379 245.149 330.624 244.973 330.853 244.808C331.088 244.637 331.277 244.464 331.421 244.288C331.571 244.112 331.645 243.92 331.645 243.712C331.645 243.477 331.565 243.291 331.405 243.152C331.245 243.013 331.048 242.944 330.813 242.944C330.584 242.944 330.376 242.987 330.189 243.072C330.008 243.157 329.827 243.277 329.645 243.432L329.309 242.888C329.528 242.712 329.765 242.571 330.021 242.464C330.277 242.357 330.571 242.304 330.901 242.304C331.205 242.304 331.469 242.363 331.693 242.48C331.923 242.597 332.101 242.757 332.229 242.96C332.357 243.163 332.421 243.395 332.421 243.656ZM336.37 246.792L336.162 248H335.458L335.666 246.792H333.282L333.378 246.232L335.722 242.344L336.338 242.608L334.218 246.152H335.778L336.066 244.56H336.77L336.482 246.152H337.17L337.058 246.792H336.37Z" fill="#454459"/>
<path opacity="0.1" d="M46.8867 237.623H335.567" stroke="#454459" stroke-width="0.414824"/>
<path opacity="0.1" d="M46.8867 237.899L47.4257 122" stroke="#454459" stroke-width="0.414824"/>
<path opacity="0.1" d="M227.5 237.903V165.997" stroke="#454459" stroke-width="0.414824"/>
<path d="M55.26 94.32H65.38V95.6H55.26V94.32ZM54.26 98.28H65.96V99.58H54.26V98.28ZM60.7 92.72H62.16V102.6H60.7V92.72ZM56.68 94.84H58.02V98.78H56.68V94.84ZM48.6 85.08H53.32V86.44H49.96V102.62H48.6V85.08ZM52.86 85.08H53.12L53.36 85.02L54.32 85.6C53.74 87.24 53 89.3 52.32 90.9C53.8 92.56 54.12 93.96 54.12 95.2C54.12 96.28 53.9 97.12 53.34 97.52C53.06 97.7 52.7 97.82 52.3 97.88C51.9 97.92 51.4 97.92 50.94 97.9C50.92 97.54 50.8 96.96 50.58 96.58C51.04 96.62 51.42 96.64 51.74 96.6C51.98 96.6 52.2 96.54 52.36 96.42C52.68 96.2 52.78 95.66 52.78 95.06C52.78 93.98 52.42 92.62 50.98 91.06C51.7 89.24 52.44 86.86 52.86 85.48V85.08ZM57.98 85.94H63.6V87.16H57.98V85.94ZM63.26 85.94H63.54L63.8 85.88L64.72 86.34C63.04 90.54 59.1 92.98 55.02 94.1C54.84 93.72 54.5 93.18 54.24 92.88C58.06 92 61.86 89.7 63.26 86.18V85.94ZM58.1 87C59.52 89.76 62.6 91.84 66.44 92.56C66.14 92.86 65.74 93.4 65.54 93.78C61.58 92.88 58.5 90.6 56.9 87.4L58.1 87ZM58.74 84.2L60.18 84.44C59.18 86.42 57.6 88.48 55.24 90.08C55.04 89.78 54.58 89.32 54.24 89.14C56.48 87.74 57.98 85.8 58.74 84.2ZM76.18 86.34H77.66V102.38H76.18V86.34ZM71.24 93.02L72.1 92.18C73.24 92.84 74.78 93.78 75.6 94.38L74.7 95.34C73.92 94.74 72.4 93.72 71.24 93.02ZM71.04 96.92L71.92 96.1C73.1 96.82 74.72 97.88 75.54 98.5L74.64 99.48C73.84 98.82 72.26 97.72 71.04 96.92ZM78.42 93.02L79.26 92.16C80.44 92.8 82.08 93.74 82.9 94.34L82.04 95.32C81.24 94.72 79.64 93.72 78.42 93.02ZM78.14 96.9L78.98 96.06C80.22 96.76 81.88 97.78 82.76 98.44L81.88 99.42C81.04 98.76 79.38 97.66 78.14 96.9ZM69 89.58H84.2V91H70.44V102.58H69V89.58ZM83.58 89.58H85.06V100.7C85.06 101.56 84.84 102 84.2 102.24C83.56 102.46 82.44 102.48 80.82 102.48C80.74 102.08 80.5 101.48 80.28 101.1C81.58 101.14 82.78 101.12 83.14 101.12C83.5 101.1 83.58 101 83.58 100.68V89.58ZM68.04 85.46H85.94V86.94H68.04V85.46ZM93.96 94.44H106.1V95.66H93.96V94.44ZM95.54 97.6L96.34 96.68C97.38 97.28 98.72 98.18 99.38 98.8L98.54 99.84C97.9 99.2 96.58 98.24 95.54 97.6ZM102.02 93.26L102.76 92.54C103.5 92.94 104.42 93.54 104.88 94L104.1 94.78C103.66 94.34 102.76 93.68 102.02 93.26ZM95.44 95H96.8C96.58 98.1 95.98 100.92 93.74 102.56C93.54 102.26 93.14 101.8 92.82 101.58C94.8 100.18 95.28 97.62 95.44 95ZM99.04 84.22H100.38C100.28 94.18 101.74 101.34 104.46 101.34C105.04 101.34 105.24 100.88 105.34 99.06C105.62 99.34 106.08 99.6 106.4 99.72C106.14 101.98 105.7 102.64 104.36 102.64C100.34 102.62 99.08 94.44 99.04 84.22ZM103.52 95.98L104.8 96.46C103.5 99.22 101.04 101.32 97.96 102.6C97.78 102.34 97.4 101.88 97.12 101.64C100.12 100.48 102.4 98.46 103.52 95.98ZM100.48 87.7L101.1 86.88C101.98 87.48 102.98 88.4 103.44 89.04L102.8 89.98C102.34 89.32 101.34 88.36 100.48 87.7ZM104.22 90.12L105.14 89.76C105.7 90.68 106.24 91.88 106.4 92.64L105.42 93.1C105.24 92.32 104.74 91.06 104.22 90.12ZM100.74 91.52C101.98 91.44 103.64 91.34 105.4 91.22V92.26C103.8 92.42 102.28 92.56 100.96 92.68L100.74 91.52ZM102.8 84.4L103.96 84.86C103.4 85.98 102.72 87.28 102.16 88.1L101.3 87.7C101.8 86.82 102.46 85.38 102.8 84.4ZM104.44 86.4L105.56 86.94C104.54 88.66 103.18 90.8 102.1 92.16L101.26 91.68C102.32 90.3 103.68 88.02 104.44 86.4ZM93.7 87.7L94.34 86.88C95.2 87.48 96.22 88.4 96.66 89.04L96.02 89.98C95.56 89.32 94.56 88.36 93.7 87.7ZM97.18 90.24L98.1 89.9C98.62 90.82 99.1 92.04 99.22 92.8L98.24 93.22C98.1 92.44 97.66 91.2 97.18 90.24ZM93.78 91.74C95.04 91.68 96.68 91.56 98.46 91.42V92.5C96.86 92.66 95.32 92.8 94 92.92L93.78 91.74ZM96.04 84.4L97.2 84.88C96.62 85.98 95.94 87.3 95.4 88.12L94.54 87.74C95.04 86.84 95.68 85.38 96.04 84.4ZM97.68 86.4L98.78 86.94C97.74 88.72 96.34 90.94 95.2 92.32L94.34 91.86C95.46 90.44 96.88 88.08 97.68 86.4ZM88.02 88.54H94.08V89.94H88.02V88.54ZM90.56 84.2H91.92V102.58H90.56V84.2ZM90.5 89.38L91.4 89.66C90.84 92.82 89.66 96.76 88.34 98.76C88.18 98.4 87.84 97.84 87.6 97.52C88.82 95.72 90.02 92.22 90.5 89.38ZM91.82 90.7C92.22 91.24 93.78 93.74 94.1 94.32L93.34 95.42C92.94 94.42 91.68 92.06 91.2 91.28L91.82 90.7ZM116.16 84.22H117.7V87.02H116.16V84.22ZM116.16 95.64H117.7V102.68H116.16V95.64ZM108.06 97.2H125.94V98.58H108.06V97.2ZM108.68 86.46H125.38V87.84H108.68V86.46ZM123.8 88.38L125.12 89.08C124.1 90.02 122.8 90.94 121.78 91.58L120.7 90.94C121.68 90.26 123.04 89.18 123.8 88.38ZM115.84 87.52L117.14 88.02C116.38 89.06 115.48 90.18 114.74 90.94L113.76 90.48C114.46 89.68 115.34 88.38 115.84 87.52ZM118.76 89.04L119.96 89.62C118.4 91.56 116.22 93.9 114.52 95.34L113.62 94.82C115.32 93.32 117.48 90.84 118.76 89.04ZM112.9 90.46L113.66 89.6C114.8 90.28 116.3 91.32 117.02 92.04L116.24 93.04C115.54 92.3 114.08 91.2 112.9 90.46ZM112.66 94.34C114.6 94.28 117.5 94.14 120.38 94V95.1C117.66 95.32 114.92 95.5 112.86 95.64L112.66 94.34ZM118.02 92.54L119.1 92.04C120.1 93.14 121.2 94.66 121.66 95.66L120.5 96.26C120.06 95.24 119 93.66 118.02 92.54ZM107.98 94.76C109.26 94.28 111.18 93.48 113.04 92.7L113.32 93.84C111.72 94.6 110.06 95.38 108.74 95.98L107.98 94.76ZM108.7 89.5L109.7 88.68C110.8 89.26 112.2 90.18 112.9 90.82L111.86 91.76C111.18 91.1 109.82 90.14 108.7 89.5ZM120.32 93.32L121.36 92.48C122.9 93.24 124.92 94.4 125.96 95.22L124.86 96.18C123.88 95.36 121.88 94.12 120.32 93.32ZM137.9 91.56L139.2 91.9C138.5 93.6 137.34 95.28 136.18 96.38C135.92 96.16 135.38 95.78 135.06 95.6C136.22 94.6 137.26 93.08 137.9 91.56ZM138.02 92.92H144.8V94.02H137.28L138.02 92.92ZM144.42 92.92H145.74C145.74 92.92 145.72 93.28 145.7 93.48C145.48 97.38 145.26 98.82 144.78 99.32C144.5 99.66 144.16 99.78 143.68 99.8C143.28 99.84 142.52 99.82 141.74 99.78C141.72 99.48 141.58 99 141.42 98.72C142.18 98.78 142.84 98.8 143.1 98.8C143.38 98.8 143.54 98.78 143.68 98.6C144 98.24 144.22 96.86 144.42 93.14V92.92ZM139.22 94.64H140.34V96.62C140.34 97.96 139.78 99.34 136.52 100.14C136.4 99.9 136.1 99.54 135.84 99.32C138.78 98.72 139.22 97.54 139.22 96.6V94.64ZM136.68 95.04H137.74V96.8H141.86V95.04H142.96V97.8H136.68V95.04ZM138.08 84.1L139.38 84.42C138.66 86.16 137.5 87.86 136.34 88.96C136.08 88.76 135.54 88.38 135.2 88.18C136.4 87.18 137.46 85.66 138.08 84.1ZM138.16 85.42H144.78V86.52H137.44L138.16 85.42ZM144.36 85.42H145.66C145.66 85.42 145.64 85.78 145.62 85.96C145.42 89.64 145.18 90.98 144.74 91.48C144.46 91.82 144.14 91.92 143.64 91.96C143.26 91.98 142.52 91.98 141.74 91.92C141.72 91.62 141.6 91.18 141.44 90.92C142.16 90.98 142.82 91 143.08 91C143.36 91 143.5 90.96 143.64 90.8C143.94 90.46 144.16 89.16 144.36 85.64V85.42ZM139.38 87.1H140.42V89.2C140.42 90.5 139.8 91.72 136.62 92.42C136.5 92.16 136.26 91.82 136.02 91.62C138.86 91.1 139.38 90.1 139.38 89.2V87.1ZM136.88 87.48H137.92V89.16H141.92V87.48H142.98V90.12H136.88V87.48ZM128.48 86.64H135.28V87.96H128.48V86.64ZM127.96 90.32H135.78V91.68H127.96V90.32ZM132.2 94.22H135.54V95.56H132.2V94.22ZM131.28 84.2H132.64V91.16H131.28V84.2ZM131.7 91.24H133.04V100.28H131.7V91.24ZM130.1 95.6C131.24 99.8 133.6 100.64 138.24 100.64C139.16 100.64 145.08 100.66 146.3 100.6C146.04 100.96 145.78 101.64 145.68 102.08H138.24C132.86 102.08 130.38 101.02 129 95.98L130.1 95.6ZM128.96 93.26L130.2 93.32C130.24 96.3 130.06 99.9 128.46 102.56C128.24 102.26 127.78 101.84 127.46 101.7C128.88 99.28 129.02 95.92 128.96 93.26ZM151.88 90.54H153.24V94.52L151.88 94.62V90.54ZM148.06 87.46H157.14V88.52H148.06V87.46ZM148.88 85.36H156.3V86.38H148.88V85.36ZM151.88 84.2H153.24V88.12H151.88V84.2ZM147.94 94.26C150.12 94.16 153.44 93.92 156.68 93.68V94.74C153.54 95 150.3 95.24 148.02 95.42L147.94 94.26ZM150.64 88.18L151.8 88.22C151.58 89.9 150.34 90.86 148.58 91.34C148.48 91.1 148.2 90.62 147.96 90.38C149.42 90.08 150.46 89.44 150.64 88.18ZM153.26 87.94H154.44V89.42C154.44 89.76 154.48 89.8 154.78 89.8C154.94 89.8 155.56 89.8 155.74 89.8C156.04 89.8 156.08 89.7 156.12 89.08C156.36 89.24 156.8 89.38 157.12 89.42C157.04 90.42 156.72 90.7 155.94 90.7C155.72 90.7 154.84 90.7 154.64 90.7C153.52 90.7 153.26 90.46 153.26 89.42V87.94ZM148.82 91.66H156.38V92.66H148.82V91.66ZM149.22 96.68H163.3V97.88H149.22V96.68ZM162.92 96.68H164.46C164.46 96.68 164.42 97.12 164.38 97.34C164.08 100.28 163.74 101.56 163.2 102.08C162.8 102.44 162.4 102.54 161.76 102.58C161.2 102.62 160.08 102.6 158.94 102.54C158.9 102.14 158.74 101.56 158.48 101.18C159.62 101.28 160.78 101.3 161.18 101.3C161.58 101.3 161.78 101.28 161.96 101.14C162.36 100.8 162.66 99.64 162.92 96.9V96.68ZM156.1 95.46H157.64C157.04 99.48 155.42 101.7 148.82 102.66C148.72 102.3 148.38 101.72 148.12 101.42C154.28 100.64 155.6 98.82 156.1 95.46ZM157.24 90.08L157.92 89.14C159.62 89.94 161.68 91.22 162.68 92.2L161.98 93.3C161 92.3 158.96 90.94 157.24 90.08ZM157.6 86.6H163.64V87.86H157.6V86.6ZM163.06 86.6H164.44C164.42 91.06 164.42 94.38 165.22 94.38C165.48 94.38 165.58 93.32 165.6 91.88C165.86 92.2 166.24 92.52 166.5 92.7C166.38 94.86 166.14 95.68 165.12 95.68C163.1 95.68 163.1 91.92 163.06 86.6ZM159.88 84.2H161.18C161.08 89.74 160.7 93.26 157.58 95.3C157.4 95 156.98 94.54 156.7 94.32C159.54 92.52 159.78 89.32 159.88 84.2Z" fill="black"/>
</g>
<defs>
<filter id="filter0_d_73_10120" x="-23.0046" y="17.6959" width="439.41" height="305.41" filterUnits="userSpaceOnUse" color-interpolation-filters="sRGB">
<feFlood flood-opacity="0" result="BackgroundImageFix"/>
<feColorMatrix in="SourceAlpha" type="matrix" values="0 0 0 0 0 0 0 0 0 0 0 0 0 0 0 0 0 0 127 0" result="hardAlpha"/>
<feMorphology radius="4.70046" operator="dilate" in="SourceAlpha" result="effect1_dropShadow_73_10120"/>
<feOffset dx="4.70046" dy="9.40092"/>
<feGaussianBlur stdDeviation="23.5023"/>
<feComposite in2="hardAlpha" operator="out"/>
<feColorMatrix type="matrix" values="0 0 0 0 0.545098 0 0 0 0 0.407843 0 0 0 0 0.67451 0 0 0 0.2 0"/>
<feBlend mode="normal" in2="BackgroundImageFix" result="effect1_dropShadow_73_10120"/>
<feBlend mode="normal" in="SourceGraphic" in2="effect1_dropShadow_73_10120" result="shape"/>
</filter>
<filter id="filter1_d_73_10120" x="210.629" y="144.704" width="33.7412" height="33.7412" filterUnits="userSpaceOnUse" color-interpolation-filters="sRGB">
<feFlood flood-opacity="0" result="BackgroundImageFix"/>
<feColorMatrix in="SourceAlpha" type="matrix" values="0 0 0 0 0 0 0 0 0 0 0 0 0 0 0 0 0 0 127 0" result="hardAlpha"/>
<feOffset dy="2.07412"/>
<feGaussianBlur stdDeviation="5.1853"/>
<feColorMatrix type="matrix" values="0 0 0 0 0 0 0 0 0 0 0 0 0 0 0 0 0 0 0.1 0"/>
<feBlend mode="normal" in2="BackgroundImageFix" result="effect1_dropShadow_73_10120"/>
<feBlend mode="normal" in="SourceGraphic" in2="effect1_dropShadow_73_10120" result="shape"/>
</filter>
<linearGradient id="paint0_linear_73_10120" x1="191.227" y1="152.624" x2="191.227" y2="237.899" gradientUnits="userSpaceOnUse">
<stop stop-color="#8B68AC" stop-opacity="0.3"/>
<stop offset="1" stop-color="#8D79F6" stop-opacity="0"/>
</linearGradient>
<linearGradient id="paint1_linear_73_10120" x1="227.5" y1="153" x2="227.5" y2="166" gradientUnits="userSpaceOnUse">
<stop stop-color="#FD95D3"/>
<stop offset="1" stop-color="#FF5CBE"/>
</linearGradient>
<clipPath id="clip0_73_10120">
<rect width="390" height="310" rx="9.57333" fill="white"/>
</clipPath>
</defs>
</svg>
