<svg width="40" height="43" viewBox="0 0 40 43" fill="none" xmlns="http://www.w3.org/2000/svg">
<path d="M0 20.9905C0 20.5161 0.150659 20.101 0.47081 19.765C0.79096 19.4488 1.18644 19.2907 1.60075 19.2907H5.44256C5.87571 19.2907 6.23352 19.4488 6.53484 19.7848C6.81733 20.1208 6.96798 20.5161 6.96798 20.9905C6.96798 21.4648 6.83616 21.8601 6.55367 22.1961C6.27119 22.5321 5.89454 22.6903 5.46139 22.6903H1.61959C1.18644 22.6903 0.809793 22.5321 0.489643 22.1961C0.169492 21.8601 0 21.4648 0 20.9905ZM5.38606 34.6876C5.38606 34.233 5.53672 33.8377 5.81921 33.482L8.58757 30.6556C8.87006 30.3393 9.24671 30.201 9.69868 30.201C10.1507 30.201 10.5273 30.3591 10.8286 30.6556C11.1299 30.952 11.2806 31.3276 11.2806 31.7822C11.2806 32.2565 11.1299 32.6914 10.8286 33.0471L8.15442 35.8538C7.3823 36.4863 6.61017 36.4863 5.83804 35.8538C5.53672 35.5375 5.38606 35.1422 5.38606 34.6876ZM5.38606 7.33283C5.38606 6.87823 5.53672 6.48293 5.81921 6.12716C6.19586 5.79115 6.59134 5.63303 7.02448 5.63303C7.4388 5.63303 7.81544 5.79116 8.13559 6.1074L10.8286 9.01286C11.1299 9.30933 11.2806 9.70463 11.2806 10.179C11.2806 10.6534 11.1299 11.0487 10.8286 11.3649C10.5273 11.6811 10.1507 11.8393 9.69868 11.8393C9.24671 11.8393 8.87006 11.6811 8.58757 11.3649L5.83804 8.53849C5.53672 8.22225 5.38606 7.80719 5.38606 7.33283ZM10.1883 20.9905C10.1883 19.1523 10.6215 17.4328 11.5066 15.8516C12.3917 14.2704 13.5782 13.0054 15.1036 12.0764C16.629 11.1475 18.2486 10.6929 20 10.6929C21.3183 10.6929 22.58 10.9696 23.8041 11.523C25.0094 12.0764 26.064 12.8077 26.9303 13.7367C27.8154 14.6657 28.5122 15.7527 29.0207 17.0177C29.5292 18.2827 29.7928 19.6267 29.7928 21.0102C29.7928 22.8681 29.3597 24.5877 28.4746 26.1689C27.5895 27.7501 26.403 28.9953 24.8964 29.9243C23.3898 30.8532 21.7514 31.3078 19.9812 31.3078C18.2109 31.3078 16.5725 30.8532 15.0659 29.9243C13.5593 28.9953 12.3729 27.7501 11.4878 26.1689C10.6403 24.5679 10.1883 22.8484 10.1883 20.9905ZM13.3898 20.9905C13.3898 22.9274 14.0301 24.5679 15.3296 25.9317C16.6102 27.2955 18.1733 27.9873 20.0188 27.9873C21.8644 27.9873 23.4275 27.2955 24.7269 25.9317C26.0264 24.5679 26.6855 22.9274 26.6855 20.9905C26.6855 19.093 26.0264 17.4723 24.7269 16.1085C23.4275 14.7645 21.8644 14.0925 20.0188 14.0925C18.1921 14.0925 16.629 14.7645 15.3484 16.1085C14.0301 17.4723 13.3898 19.093 13.3898 20.9905ZM18.3992 36.3677C18.3992 35.8933 18.5499 35.498 18.8701 35.1818C19.1902 34.8655 19.5669 34.7074 20 34.7074C20.452 34.7074 20.8475 34.8655 21.1488 35.1818C21.4501 35.498 21.6008 35.8933 21.6008 36.3677V40.3009C21.6008 40.7753 21.4501 41.1903 21.1299 41.5263C20.8098 41.8623 20.4331 42.0205 20 42.0205C19.5669 42.0205 19.1714 41.8623 18.8701 41.5263C18.5499 41.1903 18.3992 40.7753 18.3992 40.3009V36.3677ZM18.3992 5.73186V1.69979C18.3992 1.2452 18.5499 0.849897 18.8701 0.513891C19.1902 0.177886 19.5669 0 20.0188 0C20.4708 0 20.8286 0.15812 21.1488 0.494126C21.4689 0.830131 21.6196 1.22543 21.6196 1.68003V5.73186C21.6196 6.18646 21.4689 6.56199 21.1488 6.87823C20.8286 7.19447 20.452 7.33283 20.0188 7.33283C19.5857 7.33283 19.1902 7.17471 18.8889 6.87823C18.5876 6.58176 18.3992 6.18646 18.3992 5.73186ZM28.7947 31.7822C28.7947 31.3276 28.9454 30.952 29.2279 30.6753C29.5104 30.3591 29.8682 30.2207 30.2825 30.2207C30.7345 30.2207 31.1111 30.3789 31.4124 30.6753L34.162 33.5017C34.4633 33.8377 34.6139 34.2528 34.6139 34.7074C34.6139 35.162 34.4633 35.5573 34.162 35.8735C33.4087 36.4863 32.6554 36.4863 31.9021 35.8735L29.2279 33.0669C28.9454 32.7111 28.7947 32.2961 28.7947 31.7822ZM28.7947 10.1988C28.7947 9.70463 28.9454 9.30933 29.2279 9.03262L31.9021 6.12716C32.2222 5.81092 32.5989 5.6528 33.0132 5.6528C33.4652 5.6528 33.8418 5.81092 34.1431 6.14693C34.4633 6.48293 34.6139 6.87823 34.6139 7.33283C34.6139 7.82695 34.4633 8.24202 34.162 8.55826L31.4124 11.3847C31.0734 11.7009 30.6968 11.859 30.2825 11.859C29.8493 11.859 29.5104 11.7009 29.2279 11.3847C28.9454 11.0684 28.7947 10.6731 28.7947 10.1988ZM33.0508 20.9905C33.0508 20.5161 33.2015 20.1208 33.5028 19.765C33.8041 19.4488 34.162 19.2907 34.5763 19.2907H38.3804C38.8136 19.2907 39.1902 19.4686 39.5104 19.8046C39.8305 20.1406 40 20.5359 40 20.9905C40 21.4451 39.8305 21.8404 39.5104 22.1764C39.1902 22.5124 38.8136 22.6705 38.3804 22.6705H34.5763C34.1431 22.6705 33.7665 22.5124 33.484 22.1764C33.2015 21.8404 33.0508 21.4648 33.0508 20.9905Z" fill="#8B68AC"/>
</svg>
