<svg width="40" height="40" viewBox="0 0 40 40" fill="none" xmlns="http://www.w3.org/2000/svg">
<path d="M32.5 37.5H27.5C26.8376 37.498 26.2028 37.234 25.7344 36.7656C25.266 36.2972 25.0019 35.6624 25 35V26.25C24.3376 26.248 23.7028 25.984 23.2344 25.5156C22.766 25.0472 22.5019 24.4124 22.5 23.75V16.25C22.4909 15.755 22.5817 15.2633 22.767 14.8043C22.9522 14.3452 23.2281 13.9282 23.5781 13.5781C23.9282 13.2281 24.3452 12.9522 24.8043 12.767C25.2633 12.5817 25.755 12.4909 26.25 12.5H33.75C34.245 12.4909 34.7367 12.5817 35.1957 12.767C35.6548 12.9522 36.0718 13.2281 36.4219 13.5781C36.7719 13.9282 37.0478 14.3452 37.233 14.8043C37.4183 15.2633 37.5091 15.755 37.5 16.25V23.75C37.4981 24.4124 37.234 25.0472 36.7656 25.5156C36.2972 25.984 35.6624 26.248 35 26.25V35C34.9981 35.6624 34.734 36.2972 34.2656 36.7656C33.7972 37.234 33.1624 37.498 32.5 37.5ZM26.25 15C26.0832 14.9899 25.9162 15.0154 25.76 15.0746C25.6038 15.1339 25.4619 15.2256 25.3438 15.3438C25.2256 15.4619 25.1339 15.6038 25.0746 15.76C25.0154 15.9162 24.9899 16.0832 25 16.25V23.75H27.5V35H32.5V23.75H35V16.25C35.0101 16.0832 34.9846 15.9162 34.9254 15.76C34.8661 15.6038 34.7744 15.4619 34.6562 15.3438C34.5381 15.2256 34.3962 15.1339 34.24 15.0746C34.0838 15.0154 33.9168 14.9899 33.75 15H26.25Z" fill="#8B68AC"/>
<path d="M30 11.25C29.0111 11.25 28.0444 10.9568 27.2222 10.4074C26.3999 9.85794 25.759 9.07705 25.3806 8.16342C25.0022 7.24979 24.9031 6.24446 25.0961 5.27455C25.289 4.30465 25.7652 3.41373 26.4645 2.71447C27.1637 2.01521 28.0546 1.539 29.0246 1.34608C29.9945 1.15315 30.9998 1.25217 31.9134 1.6306C32.827 2.00904 33.6079 2.64991 34.1574 3.47215C34.7068 4.2944 35 5.2611 35 6.25C34.9961 7.57489 34.4681 8.8444 33.5312 9.78124C32.5944 10.7181 31.3249 11.2461 30 11.25ZM30 3.75C29.5055 3.75 29.0222 3.89662 28.6111 4.17133C28.2 4.44603 27.8795 4.83648 27.6903 5.29329C27.5011 5.75011 27.4516 6.25278 27.548 6.73773C27.6445 7.22268 27.8826 7.66814 28.2322 8.01777C28.5819 8.3674 29.0273 8.6055 29.5123 8.70197C29.9972 8.79843 30.4999 8.74892 30.9567 8.5597C31.4135 8.37048 31.804 8.05005 32.0787 7.63893C32.3534 7.2278 32.5 6.74446 32.5 6.25C32.4981 5.58756 32.234 4.9528 31.7656 4.48438C31.2972 4.01596 30.6624 3.75195 30 3.75Z" fill="#8B68AC"/>
<path d="M12.5 25.2299V15H10V25.2299C9.16598 25.5247 8.46306 26.1049 8.01546 26.868C7.56786 27.631 7.40442 28.5277 7.55401 29.3995C7.70359 30.2714 8.15659 31.0623 8.83293 31.6325C9.50926 32.2027 10.3654 32.5154 11.25 32.5154C12.1346 32.5154 12.9907 32.2027 13.6671 31.6325C14.3434 31.0623 14.7964 30.2714 14.946 29.3995C15.0956 28.5277 14.9321 27.631 14.4845 26.868C14.0369 26.1049 13.334 25.5247 12.5 25.2299Z" fill="#8B68AC"/>
<path d="M11.25 37.5C9.5277 37.5017 7.84328 36.9945 6.40819 36.0423C4.97311 35.09 3.85131 33.735 3.18364 32.1473C2.51597 30.5597 2.33217 28.8102 2.65531 27.1185C2.97846 25.4268 3.79416 23.8682 5 22.6385V8.75C5 7.0924 5.65848 5.50269 6.83058 4.33058C8.00269 3.15848 9.5924 2.5 11.25 2.5C12.9076 2.5 14.4973 3.15848 15.6694 4.33058C16.8415 5.50269 17.5 7.0924 17.5 8.75V22.6385C18.7058 23.8682 19.5215 25.4268 19.8447 27.1185C20.1678 28.8102 19.984 30.5597 19.3164 32.1473C18.6487 33.735 17.5269 35.09 16.0918 36.0423C14.6567 36.9945 12.9723 37.5017 11.25 37.5ZM11.25 5C10.2558 5.00109 9.30258 5.39653 8.59956 6.09956C7.89653 6.80258 7.50109 7.75577 7.5 8.75V23.7292L7.085 24.1021C6.1411 24.9458 5.47565 26.0562 5.17673 27.2863C4.87781 28.5165 4.95951 29.8085 5.41103 30.9912C5.86254 32.1739 6.66258 33.1916 7.70524 33.9096C8.7479 34.6276 9.98403 35.0121 11.25 35.0121C12.516 35.0121 13.7521 34.6276 14.7948 33.9096C15.8374 33.1916 16.6375 32.1739 17.089 30.9912C17.5405 29.8085 17.6222 28.5165 17.3233 27.2863C17.0244 26.0562 16.3589 24.9458 15.415 24.1021L15 23.7292V8.75C14.9989 7.75577 14.6035 6.80258 13.9004 6.09956C13.1974 5.39653 12.2442 5.00109 11.25 5Z" fill="#8B68AC"/>
</svg>
