<svg width="40" height="39" viewBox="0 0 40 39" fill="none" xmlns="http://www.w3.org/2000/svg">
<path d="M0.00722755 18.4683C0.0265012 17.7805 0.354153 16.7287 0.970909 15.2722C1.58766 13.8158 2.4357 12.2785 3.5343 10.6198C7.1192 5.34023 12.1882 2.56897 18.7219 2.26555V1.39574C18.7219 0.97095 18.8568 0.6473 19.1267 0.384334C19.3965 0.121369 19.7049 0 20.0518 0C20.418 0 20.7264 0.121369 21.0155 0.384334C21.2853 0.6473 21.4395 0.991178 21.4395 1.39574V2.28578C23.3283 2.36669 25.1015 2.67011 26.7397 3.19604C28.378 3.72197 29.8043 4.3895 31.0185 5.21886C32.2327 6.04821 33.2735 6.89779 34.1215 7.78783C34.9889 8.65764 35.7598 9.60836 36.4344 10.64C37.2246 11.8335 37.9184 13.1281 38.4774 14.4833C39.0363 15.8386 39.4411 16.9309 39.6531 17.7401C39.8651 18.5492 39.9807 18.9538 40 18.974V19.3583C40 19.7224 39.8651 20.0056 39.5953 20.2484C39.3254 20.4911 39.017 20.5922 38.6508 20.5922C38.0534 20.5922 37.6679 20.4102 37.4944 20.0663C35.9911 18.2862 34.3528 17.4164 32.5797 17.4164C31.9244 17.4569 31.2498 17.6187 30.5945 17.8817C29.9392 18.1446 29.3995 18.4278 29.014 18.7312C28.6093 19.0144 28.2431 19.3179 27.8962 19.6213C27.5492 19.9247 27.3758 20.0663 27.3565 20.0865C26.9903 20.4304 26.6434 20.6125 26.335 20.6125C25.8917 20.6125 25.5641 20.4911 25.3328 20.2484C23.9258 18.7717 22.6537 17.8817 21.4588 17.5782V32.8909V33.2348L21.4395 33.6596L21.3624 34.1248L21.2468 34.6305L21.0733 35.1565L20.8227 35.7026L20.4951 36.2286L20.0903 36.7343C19.1074 37.9277 17.7197 38.5143 15.8887 38.5143C13.9421 38.5143 12.4773 37.9277 11.4943 36.7343C11.263 36.4915 11.0703 36.2286 10.8968 35.9656C10.7234 35.6824 10.5884 35.4194 10.4921 35.1362C10.3957 34.8733 10.3186 34.6103 10.2608 34.3676C10.203 34.1248 10.1644 33.8821 10.1452 33.6394C10.1066 33.3359 10.0873 33.1337 10.0873 32.9718C10.0873 32.81 10.0873 32.6482 10.0873 32.5066C10.0873 32.365 10.1066 32.2639 10.1066 32.2436C10.1066 31.8795 10.2608 31.5559 10.5499 31.2929C10.8583 31.0299 11.2052 30.9288 11.61 31.0097C11.9569 31.0097 12.2267 31.1715 12.458 31.475C12.6893 31.7784 12.8049 32.1627 12.8049 32.6077C12.6893 33.4371 12.8435 34.1451 13.2868 34.7317C13.6915 35.3183 14.5395 35.6217 15.8309 35.6217C16.8331 35.6217 17.5655 35.379 18.0088 34.8935C18.2594 34.6305 18.4521 34.3069 18.5677 33.9226C18.6834 33.5382 18.7412 33.2348 18.7219 32.9718L18.7026 32.5875V17.6996C17.2957 18.0637 16.0429 18.8324 14.9828 20.0056C14.9057 20.1674 14.7516 20.3293 14.5395 20.4709C14.3275 20.6125 14.1348 20.6934 13.9613 20.6934C13.6144 20.6934 13.2289 20.4709 12.8049 20.0056C11.263 18.2053 9.62477 17.3153 7.89014 17.3557C7.11919 17.376 6.3868 17.4973 5.73149 17.7603C5.05692 18.0233 4.5558 18.2862 4.20888 18.5492C3.88123 18.8122 3.51503 19.1156 3.1681 19.4595C2.82118 19.8033 2.60917 20.0056 2.55135 20.0461C2.1466 20.3293 1.81895 20.4911 1.56839 20.4911C1.31783 20.4911 0.990182 20.3697 0.643257 20.1472C0.334879 19.9449 0.142143 19.7224 0.0650488 19.4999C0.00722795 19.2572 -0.0120461 18.9133 0.00722755 18.4683ZM4.03542 15.5959C5.34602 14.8677 6.57953 14.5238 7.73595 14.5238H7.89014C10.1066 14.5238 12.1303 15.4138 13.9613 17.2141C14.6937 16.5466 15.5803 15.96 16.6404 15.4341C17.6811 14.9081 18.8183 14.6047 20.0518 14.5238H20.206C22.4225 14.5238 24.4462 15.4138 26.2772 17.2141C27.0096 16.5466 27.8962 15.96 28.9562 15.4341C29.997 14.9081 31.1341 14.6047 32.3676 14.5238H32.5411C33.6204 14.5238 34.7576 14.8272 35.914 15.4138C35.066 13.6742 34.4877 12.5617 34.2179 12.056C30.7679 7.32258 25.9881 4.95589 19.8976 4.95589C16.8524 4.95589 14.1348 5.56273 11.7256 6.77642C9.33566 7.99011 7.36975 9.74996 5.84714 12.056C5.40384 12.7437 4.78709 13.9372 4.03542 15.5959Z" fill="#8B68AC"/>
</svg>
