<svg width="390" height="243" viewBox="0 0 390 243" fill="none" xmlns="http://www.w3.org/2000/svg">
<g clip-path="url(#clip0_73_10130)">
<g opacity="0.7" filter="url(#filter0_d_73_10130)">
<rect x="24.47" y="20.47" width="335.06" height="201.06" rx="13.6313" stroke="#8B68AC" stroke-opacity="0.1" stroke-width="0.940092" shape-rendering="crispEdges"/>
</g>
<path d="M101.136 119.45C77.8109 118.27 46.244 136.754 46.244 136.754V197.319H338.756V119.45C338.756 119.45 316.278 130.299 300.942 128.455C276.462 125.511 290.306 94.9587 266.543 89.7851C249.33 86.0376 238.152 101.052 221.41 96.3183C204.563 91.5549 210.302 75.2674 194.33 69.1259C158.207 55.2362 187.897 137.333 147.001 136.754C126.806 136.468 121.286 120.468 101.136 119.45Z" fill="url(#paint0_linear_73_10130)"/>
<path d="M46.244 136.754C46.244 136.754 77.8109 118.27 101.136 119.45C121.286 120.468 126.806 136.468 147.001 136.754C187.897 137.333 158.207 55.2362 194.33 69.1259C210.302 75.2674 204.563 91.5549 221.41 96.3183C238.152 101.052 249.33 86.0376 266.543 89.7851C290.306 94.9587 276.462 125.511 300.942 128.455C316.278 130.299 338.756 119.45 338.756 119.45" stroke="#F7CE76" stroke-width="1.85833" stroke-linecap="round"/>
<path d="M46 98.7904C46 98.7904 70.3723 111.619 86.9858 110.621C107.741 109.373 108.868 88.06 129.679 87.4896C154.401 86.8121 154.064 121.726 177.984 117.154C191.418 114.587 191.049 102.8 204.332 99.8498C227.358 94.7359 233.631 124.691 257.516 122.451C277.247 120.601 277.025 98.6475 296.794 97.0246C313.714 95.6356 319.483 103.911 339 107.796" stroke="#D18DB4" stroke-width="1.85833" stroke-linecap="round"/>
<path opacity="0.3" d="M71.1282 196.259V55" stroke="#171724" stroke-width="0.371667" stroke-linecap="round" stroke-dasharray="0 0.37 5.2 0 0.37 5.2"/>
<path opacity="0.3" d="M111.382 196.259V55" stroke="#171724" stroke-width="0.371667" stroke-linecap="round" stroke-dasharray="0 0.37 5.2 0 0.37 5.2"/>
<path opacity="0.3" d="M151.636 196.259V55" stroke="#171724" stroke-width="0.371667" stroke-linecap="round" stroke-dasharray="0 0.37 5.2 0 0.37 5.2"/>
<path opacity="0.3" d="M191.89 197.319V56.0594" stroke="#171724" stroke-width="0.371667" stroke-linecap="round" stroke-dasharray="0 0.37 5.2 0 0.37 5.2"/>
<path opacity="0.3" d="M232.144 197.319V56.0594" stroke="#171724" stroke-width="0.371667" stroke-linecap="round" stroke-dasharray="0 0.37 5.2 0 0.37 5.2"/>
<path opacity="0.3" d="M272.398 197.319V56.0594" stroke="#171724" stroke-width="0.371667" stroke-linecap="round" stroke-dasharray="0 0.37 5.2 0 0.37 5.2"/>
<path opacity="0.3" d="M312.652 197.319V56.0594" stroke="#171724" stroke-width="0.371667" stroke-linecap="round" stroke-dasharray="0 0.37 5.2 0 0.37 5.2"/>
<g filter="url(#filter1_d_73_10130)">
<circle cx="188.632" cy="67.1504" r="6.5" fill="url(#paint1_linear_73_10130)"/>
<circle cx="188.632" cy="67.1504" r="5.01333" stroke="white" stroke-width="2.97333"/>
</g>
<path opacity="0.5" d="M48.3849 208.096C47.8515 208.096 47.4435 207.909 47.1609 207.536C46.8835 207.157 46.7449 206.645 46.7449 206C46.7449 205.552 46.7929 205.109 46.8889 204.672C46.9849 204.229 47.1315 203.832 47.3289 203.48C47.5262 203.123 47.7769 202.837 48.0809 202.624C48.3902 202.411 48.7529 202.304 49.1689 202.304C49.7022 202.304 50.1075 202.493 50.3849 202.872C50.6675 203.245 50.8089 203.755 50.8089 204.4C50.8089 204.848 50.7609 205.293 50.6649 205.736C50.5689 206.173 50.4222 206.571 50.2249 206.928C50.0275 207.28 49.7742 207.563 49.4649 207.776C49.1609 207.989 48.8009 208.096 48.3849 208.096ZM48.4649 207.44C48.7209 207.44 48.9449 207.357 49.1369 207.192C49.3342 207.021 49.4995 206.792 49.6329 206.504C49.7662 206.216 49.8649 205.888 49.9289 205.52C49.9982 205.147 50.0329 204.757 50.0329 204.352C50.0329 203.904 49.9529 203.56 49.7929 203.32C49.6382 203.08 49.4035 202.96 49.0889 202.96C48.8329 202.96 48.6062 203.045 48.4089 203.216C48.2169 203.381 48.0542 203.608 47.9209 203.896C47.7875 204.184 47.6862 204.515 47.6169 204.888C47.5529 205.256 47.5209 205.643 47.5209 206.048C47.5209 206.496 47.6009 206.84 47.7609 207.08C47.9209 207.32 48.1555 207.44 48.4649 207.44ZM53.1818 208.096C52.6484 208.096 52.2404 207.909 51.9578 207.536C51.6804 207.157 51.5418 206.645 51.5418 206C51.5418 205.552 51.5898 205.109 51.6858 204.672C51.7818 204.229 51.9284 203.832 52.1258 203.48C52.3231 203.123 52.5738 202.837 52.8778 202.624C53.1871 202.411 53.5498 202.304 53.9658 202.304C54.4991 202.304 54.9044 202.493 55.1818 202.872C55.4644 203.245 55.6058 203.755 55.6058 204.4C55.6058 204.848 55.5578 205.293 55.4618 205.736C55.3657 206.173 55.2191 206.571 55.0218 206.928C54.8244 207.28 54.5711 207.563 54.2618 207.776C53.9578 207.989 53.5978 208.096 53.1818 208.096ZM53.2618 207.44C53.5178 207.44 53.7418 207.357 53.9338 207.192C54.1311 207.021 54.2964 206.792 54.4298 206.504C54.5631 206.216 54.6618 205.888 54.7258 205.52C54.7951 205.147 54.8298 204.757 54.8298 204.352C54.8298 203.904 54.7498 203.56 54.5898 203.32C54.4351 203.08 54.2004 202.96 53.8858 202.96C53.6298 202.96 53.4031 203.045 53.2057 203.216C53.0138 203.381 52.8511 203.608 52.7178 203.896C52.5844 204.184 52.4831 204.515 52.4138 204.888C52.3498 205.256 52.3178 205.643 52.3178 206.048C52.3178 206.496 52.3978 206.84 52.5578 207.08C52.7178 207.32 52.9524 207.44 53.2618 207.44ZM60.3771 208.096C59.8437 208.096 59.4357 207.909 59.1531 207.536C58.8757 207.157 58.7371 206.645 58.7371 206C58.7371 205.552 58.7851 205.109 58.8811 204.672C58.9771 204.229 59.1237 203.832 59.3211 203.48C59.5184 203.123 59.7691 202.837 60.0731 202.624C60.3824 202.411 60.7451 202.304 61.1611 202.304C61.6944 202.304 62.0997 202.493 62.3771 202.872C62.6597 203.245 62.8011 203.755 62.8011 204.4C62.8011 204.848 62.7531 205.293 62.6571 205.736C62.5611 206.173 62.4144 206.571 62.2171 206.928C62.0197 207.28 61.7664 207.563 61.4571 207.776C61.1531 207.989 60.7931 208.096 60.3771 208.096ZM60.4571 207.44C60.7131 207.44 60.9371 207.357 61.1291 207.192C61.3264 207.021 61.4917 206.792 61.6251 206.504C61.7584 206.216 61.8571 205.888 61.9211 205.52C61.9904 205.147 62.0251 204.757 62.0251 204.352C62.0251 203.904 61.9451 203.56 61.7851 203.32C61.6304 203.08 61.3957 202.96 61.0811 202.96C60.8251 202.96 60.5984 203.045 60.4011 203.216C60.2091 203.381 60.0464 203.608 59.9131 203.896C59.7797 204.184 59.6784 204.515 59.6091 204.888C59.5451 205.256 59.5131 205.643 59.5131 206.048C59.5131 206.496 59.5931 206.84 59.7531 207.08C59.9131 207.32 60.1477 207.44 60.4571 207.44ZM65.1179 207.36L65.8299 203.336L64.6379 204.168L64.3099 203.592L66.1819 202.4H66.7099L65.8379 207.36H66.7899L66.6779 208H63.8619L63.9739 207.36H65.1179ZM72.3693 208.096C71.8359 208.096 71.4279 207.909 71.1453 207.536C70.8679 207.157 70.7293 206.645 70.7293 206C70.7293 205.552 70.7773 205.109 70.8733 204.672C70.9693 204.229 71.1159 203.832 71.3133 203.48C71.5106 203.123 71.7613 202.837 72.0653 202.624C72.3746 202.411 72.7373 202.304 73.1533 202.304C73.6866 202.304 74.0919 202.493 74.3693 202.872C74.6519 203.245 74.7933 203.755 74.7933 204.4C74.7933 204.848 74.7453 205.293 74.6493 205.736C74.5532 206.173 74.4066 206.571 74.2093 206.928C74.0119 207.28 73.7586 207.563 73.4493 207.776C73.1453 207.989 72.7853 208.096 72.3693 208.096ZM72.4493 207.44C72.7053 207.44 72.9293 207.357 73.1213 207.192C73.3186 207.021 73.4839 206.792 73.6173 206.504C73.7506 206.216 73.8493 205.888 73.9133 205.52C73.9826 205.147 74.0173 204.757 74.0173 204.352C74.0173 203.904 73.9373 203.56 73.7773 203.32C73.6226 203.08 73.3879 202.96 73.0733 202.96C72.8173 202.96 72.5906 203.045 72.3932 203.216C72.2013 203.381 72.0386 203.608 71.9053 203.896C71.7719 204.184 71.6706 204.515 71.6013 204.888C71.5373 205.256 71.5053 205.643 71.5053 206.048C71.5053 206.496 71.5853 206.84 71.7453 207.08C71.9053 207.32 72.1399 207.44 72.4493 207.44ZM79.3901 203.656C79.3901 203.933 79.3235 204.184 79.1901 204.408C79.0621 204.627 78.8915 204.827 78.6781 205.008C78.4648 205.189 78.2355 205.365 77.9901 205.536C77.7501 205.701 77.5155 205.875 77.2861 206.056C77.0621 206.232 76.8675 206.424 76.7021 206.632C76.5368 206.84 76.4275 207.077 76.3741 207.344H78.9181L78.8061 208H75.5901C75.5848 207.957 75.5795 207.909 75.5741 207.856C75.5688 207.803 75.5661 207.752 75.5661 207.704C75.5661 207.331 75.6381 207.003 75.7821 206.72C75.9315 206.432 76.1208 206.176 76.3501 205.952C76.5848 205.728 76.8301 205.523 77.0861 205.336C77.3475 205.149 77.5928 204.973 77.8221 204.808C78.0568 204.637 78.2461 204.464 78.3901 204.288C78.5395 204.112 78.6141 203.92 78.6141 203.712C78.6141 203.477 78.5341 203.291 78.3741 203.152C78.2141 203.013 78.0168 202.944 77.7821 202.944C77.5528 202.944 77.3448 202.987 77.1581 203.072C76.9768 203.157 76.7955 203.277 76.6141 203.432L76.2781 202.888C76.4968 202.712 76.7341 202.571 76.9901 202.464C77.2461 202.357 77.5395 202.304 77.8701 202.304C78.1741 202.304 78.4381 202.363 78.6621 202.48C78.8915 202.597 79.0701 202.757 79.1981 202.96C79.3261 203.163 79.3901 203.395 79.3901 203.656ZM84.3614 208.096C83.8281 208.096 83.4201 207.909 83.1374 207.536C82.8601 207.157 82.7214 206.645 82.7214 206C82.7214 205.552 82.7694 205.109 82.8654 204.672C82.9614 204.229 83.1081 203.832 83.3054 203.48C83.5028 203.123 83.7534 202.837 84.0574 202.624C84.3668 202.411 84.7294 202.304 85.1454 202.304C85.6788 202.304 86.0841 202.493 86.3614 202.872C86.6441 203.245 86.7854 203.755 86.7854 204.4C86.7854 204.848 86.7374 205.293 86.6414 205.736C86.5454 206.173 86.3988 206.571 86.2014 206.928C86.0041 207.28 85.7508 207.563 85.4414 207.776C85.1374 207.989 84.7774 208.096 84.3614 208.096ZM84.4414 207.44C84.6974 207.44 84.9214 207.357 85.1134 207.192C85.3108 207.021 85.4761 206.792 85.6094 206.504C85.7428 206.216 85.8414 205.888 85.9054 205.52C85.9748 205.147 86.0094 204.757 86.0094 204.352C86.0094 203.904 85.9294 203.56 85.7694 203.32C85.6148 203.08 85.3801 202.96 85.0654 202.96C84.8094 202.96 84.5828 203.045 84.3854 203.216C84.1934 203.381 84.0308 203.608 83.8974 203.896C83.7641 204.184 83.6628 204.515 83.5934 204.888C83.5294 205.256 83.4974 205.643 83.4974 206.048C83.4974 206.496 83.5774 206.84 83.7374 207.08C83.8974 207.32 84.1321 207.44 84.4414 207.44ZM88.3583 205.376L88.4543 204.792H88.7103C89.233 204.792 89.6516 204.699 89.9663 204.512C90.281 204.32 90.4383 204.061 90.4383 203.736C90.4383 203.491 90.353 203.296 90.1823 203.152C90.017 203.003 89.8036 202.928 89.5423 202.928C89.297 202.928 89.0863 202.968 88.9103 203.048C88.7343 203.123 88.577 203.211 88.4383 203.312L88.1583 202.768C88.345 202.635 88.5583 202.525 88.7983 202.44C89.0436 202.349 89.321 202.304 89.6303 202.304C89.9556 202.304 90.233 202.365 90.4623 202.488C90.697 202.611 90.8756 202.773 90.9983 202.976C91.121 203.173 91.1823 203.387 91.1823 203.616C91.1823 203.989 91.073 204.293 90.8543 204.528C90.6356 204.757 90.3156 204.936 89.8943 205.064C90.2303 205.181 90.489 205.355 90.6703 205.584C90.8516 205.813 90.9423 206.085 90.9423 206.4C90.9423 206.741 90.8543 207.04 90.6783 207.296C90.5023 207.552 90.2596 207.749 89.9503 207.888C89.6463 208.027 89.297 208.096 88.9023 208.096C88.5983 208.096 88.3103 208.056 88.0383 207.976C87.7716 207.891 87.545 207.776 87.3583 207.632L87.7823 207.064C87.9156 207.176 88.0756 207.269 88.2623 207.344C88.449 207.419 88.6623 207.456 88.9023 207.456C89.265 207.456 89.5663 207.368 89.8063 207.192C90.0463 207.016 90.1663 206.763 90.1663 206.432C90.1663 206.139 90.0516 205.891 89.8223 205.688C89.593 205.48 89.241 205.376 88.7663 205.376H88.3583ZM96.3536 208.096C95.8203 208.096 95.4123 207.909 95.1296 207.536C94.8523 207.157 94.7136 206.645 94.7136 206C94.7136 205.552 94.7616 205.109 94.8576 204.672C94.9536 204.229 95.1003 203.832 95.2976 203.48C95.495 203.123 95.7456 202.837 96.0496 202.624C96.359 202.411 96.7216 202.304 97.1376 202.304C97.671 202.304 98.0763 202.493 98.3536 202.872C98.6363 203.245 98.7776 203.755 98.7776 204.4C98.7776 204.848 98.7296 205.293 98.6336 205.736C98.5376 206.173 98.391 206.571 98.1936 206.928C97.9963 207.28 97.743 207.563 97.4336 207.776C97.1296 207.989 96.7696 208.096 96.3536 208.096ZM96.4336 207.44C96.6896 207.44 96.9136 207.357 97.1056 207.192C97.303 207.021 97.4683 206.792 97.6016 206.504C97.735 206.216 97.8336 205.888 97.8976 205.52C97.967 205.147 98.0016 204.757 98.0016 204.352C98.0016 203.904 97.9216 203.56 97.7616 203.32C97.607 203.08 97.3723 202.96 97.0576 202.96C96.8016 202.96 96.575 203.045 96.3776 203.216C96.1856 203.381 96.023 203.608 95.8896 203.896C95.7563 204.184 95.655 204.515 95.5856 204.888C95.5216 205.256 95.4896 205.643 95.4896 206.048C95.4896 206.496 95.5696 206.84 95.7296 207.08C95.8896 207.32 96.1243 207.44 96.4336 207.44ZM102.527 206.792L102.319 208H101.615L101.823 206.792H99.4385L99.5345 206.232L101.879 202.344L102.495 202.608L100.375 206.152H101.935L102.223 204.56H102.927L102.639 206.152H103.327L103.215 206.792H102.527ZM108.346 208.096C107.812 208.096 107.404 207.909 107.122 207.536C106.844 207.157 106.706 206.645 106.706 206C106.706 205.552 106.754 205.109 106.85 204.672C106.946 204.229 107.092 203.832 107.29 203.48C107.487 203.123 107.738 202.837 108.042 202.624C108.351 202.411 108.714 202.304 109.13 202.304C109.663 202.304 110.068 202.493 110.346 202.872C110.628 203.245 110.77 203.755 110.77 204.4C110.77 204.848 110.722 205.293 110.626 205.736C110.53 206.173 110.383 206.571 110.186 206.928C109.988 207.28 109.735 207.563 109.426 207.776C109.122 207.989 108.762 208.096 108.346 208.096ZM108.426 207.44C108.682 207.44 108.906 207.357 109.098 207.192C109.295 207.021 109.46 206.792 109.594 206.504C109.727 206.216 109.826 205.888 109.89 205.52C109.959 205.147 109.994 204.757 109.994 204.352C109.994 203.904 109.914 203.56 109.754 203.32C109.599 203.08 109.364 202.96 109.05 202.96C108.794 202.96 108.567 203.045 108.37 203.216C108.178 203.381 108.015 203.608 107.882 203.896C107.748 204.184 107.647 204.515 107.578 204.888C107.514 205.256 107.482 205.643 107.482 206.048C107.482 206.496 107.562 206.84 107.722 207.08C107.882 207.32 108.116 207.44 108.426 207.44ZM111.815 207.024C111.959 207.152 112.129 207.253 112.327 207.328C112.524 207.403 112.74 207.44 112.975 207.44C113.359 207.44 113.679 207.336 113.935 207.128C114.191 206.92 114.319 206.635 114.319 206.272C114.319 205.963 114.204 205.709 113.975 205.512C113.751 205.315 113.423 205.216 112.991 205.216H112.199L112.687 202.4H115.447L115.335 203.048H113.255L112.991 204.568H113.143C113.58 204.568 113.943 204.643 114.231 204.792C114.519 204.936 114.735 205.131 114.879 205.376C115.023 205.616 115.095 205.88 115.095 206.168C115.095 206.547 115.004 206.883 114.823 207.176C114.641 207.464 114.388 207.691 114.063 207.856C113.743 208.016 113.367 208.096 112.935 208.096C112.615 208.096 112.319 208.056 112.047 207.976C111.78 207.891 111.559 207.779 111.383 207.64L111.815 207.024ZM120.338 208.096C119.805 208.096 119.397 207.909 119.114 207.536C118.837 207.157 118.698 206.645 118.698 206C118.698 205.552 118.746 205.109 118.842 204.672C118.938 204.229 119.085 203.832 119.282 203.48C119.479 203.123 119.73 202.837 120.034 202.624C120.343 202.411 120.706 202.304 121.122 202.304C121.655 202.304 122.061 202.493 122.338 202.872C122.621 203.245 122.762 203.755 122.762 204.4C122.762 204.848 122.714 205.293 122.618 205.736C122.522 206.173 122.375 206.571 122.178 206.928C121.981 207.28 121.727 207.563 121.418 207.776C121.114 207.989 120.754 208.096 120.338 208.096ZM120.418 207.44C120.674 207.44 120.898 207.357 121.09 207.192C121.287 207.021 121.453 206.792 121.586 206.504C121.719 206.216 121.818 205.888 121.882 205.52C121.951 205.147 121.986 204.757 121.986 204.352C121.986 203.904 121.906 203.56 121.746 203.32C121.591 203.08 121.357 202.96 121.042 202.96C120.786 202.96 120.559 203.045 120.362 203.216C120.17 203.381 120.007 203.608 119.874 203.896C119.741 204.184 119.639 204.515 119.57 204.888C119.506 205.256 119.474 205.643 119.474 206.048C119.474 206.496 119.554 206.84 119.714 207.08C119.874 207.32 120.109 207.44 120.418 207.44ZM126.983 203.04C125.708 203.04 124.882 203.699 124.503 205.016C124.658 204.845 124.842 204.709 125.055 204.608C125.274 204.507 125.519 204.456 125.791 204.456C126.079 204.456 126.335 204.523 126.559 204.656C126.788 204.784 126.967 204.965 127.095 205.2C127.223 205.429 127.287 205.696 127.287 206C127.287 206.389 127.204 206.744 127.039 207.064C126.874 207.379 126.642 207.629 126.343 207.816C126.044 208.003 125.695 208.096 125.295 208.096C124.959 208.096 124.66 208.021 124.399 207.872C124.138 207.723 123.932 207.507 123.783 207.224C123.639 206.941 123.567 206.597 123.567 206.192C123.567 205.717 123.636 205.256 123.775 204.808C123.919 204.355 124.132 203.947 124.415 203.584C124.703 203.216 125.063 202.925 125.495 202.712C125.927 202.493 126.431 202.384 127.007 202.384C127.055 202.384 127.116 202.387 127.191 202.392C127.271 202.392 127.338 202.395 127.391 202.4L127.279 203.056C127.236 203.051 127.186 203.048 127.127 203.048C127.074 203.043 127.026 203.04 126.983 203.04ZM125.591 205.056C125.127 205.056 124.708 205.288 124.335 205.752C124.319 205.88 124.311 206.021 124.311 206.176C124.311 206.565 124.407 206.877 124.599 207.112C124.791 207.341 125.034 207.456 125.327 207.456C125.556 207.456 125.762 207.395 125.943 207.272C126.13 207.149 126.276 206.984 126.383 206.776C126.49 206.563 126.543 206.328 126.543 206.072C126.543 205.768 126.452 205.523 126.271 205.336C126.09 205.149 125.863 205.056 125.591 205.056ZM132.33 208.096C131.797 208.096 131.389 207.909 131.106 207.536C130.829 207.157 130.69 206.645 130.69 206C130.69 205.552 130.738 205.109 130.834 204.672C130.93 204.229 131.077 203.832 131.274 203.48C131.472 203.123 131.722 202.837 132.026 202.624C132.336 202.411 132.698 202.304 133.114 202.304C133.648 202.304 134.053 202.493 134.33 202.872C134.613 203.245 134.754 203.755 134.754 204.4C134.754 204.848 134.706 205.293 134.61 205.736C134.514 206.173 134.368 206.571 134.17 206.928C133.973 207.28 133.72 207.563 133.41 207.776C133.106 207.989 132.746 208.096 132.33 208.096ZM132.41 207.44C132.666 207.44 132.89 207.357 133.082 207.192C133.28 207.021 133.445 206.792 133.578 206.504C133.712 206.216 133.81 205.888 133.874 205.52C133.944 205.147 133.978 204.757 133.978 204.352C133.978 203.904 133.898 203.56 133.738 203.32C133.584 203.08 133.349 202.96 133.034 202.96C132.778 202.96 132.552 203.045 132.354 203.216C132.162 203.381 132 203.608 131.866 203.896C131.733 204.184 131.632 204.515 131.562 204.888C131.498 205.256 131.466 205.643 131.466 206.048C131.466 206.496 131.546 206.84 131.706 207.08C131.866 207.32 132.101 207.44 132.41 207.44ZM136.063 208C136.175 207.328 136.306 206.749 136.455 206.264C136.61 205.779 136.791 205.355 136.999 204.992C137.212 204.629 137.466 204.296 137.759 203.992C138.052 203.688 138.394 203.376 138.783 203.056H136.119L136.231 202.4H139.775L139.679 202.976C139.322 203.275 139.01 203.563 138.743 203.84C138.476 204.112 138.244 204.389 138.047 204.672C137.855 204.949 137.687 205.251 137.543 205.576C137.404 205.901 137.279 206.261 137.167 206.656C137.06 207.051 136.962 207.499 136.871 208H136.063ZM144.322 208.096C143.789 208.096 143.381 207.909 143.098 207.536C142.821 207.157 142.682 206.645 142.682 206C142.682 205.552 142.73 205.109 142.826 204.672C142.922 204.229 143.069 203.832 143.266 203.48C143.464 203.123 143.714 202.837 144.018 202.624C144.328 202.411 144.69 202.304 145.106 202.304C145.64 202.304 146.045 202.493 146.322 202.872C146.605 203.245 146.746 203.755 146.746 204.4C146.746 204.848 146.698 205.293 146.602 205.736C146.506 206.173 146.36 206.571 146.162 206.928C145.965 207.28 145.712 207.563 145.402 207.776C145.098 207.989 144.738 208.096 144.322 208.096ZM144.402 207.44C144.658 207.44 144.882 207.357 145.074 207.192C145.272 207.021 145.437 206.792 145.57 206.504C145.704 206.216 145.802 205.888 145.866 205.52C145.936 205.147 145.97 204.757 145.97 204.352C145.97 203.904 145.89 203.56 145.73 203.32C145.576 203.08 145.341 202.96 145.026 202.96C144.77 202.96 144.544 203.045 144.346 203.216C144.154 203.381 143.992 203.608 143.858 203.896C143.725 204.184 143.624 204.515 143.554 204.888C143.49 205.256 143.458 205.643 143.458 206.048C143.458 206.496 143.538 206.84 143.698 207.08C143.858 207.32 144.093 207.44 144.402 207.44ZM148.903 204.928C148.647 204.768 148.455 204.597 148.327 204.416C148.205 204.229 148.143 204.008 148.143 203.752C148.143 203.475 148.223 203.227 148.383 203.008C148.543 202.789 148.754 202.619 149.015 202.496C149.282 202.368 149.575 202.304 149.895 202.304C150.221 202.304 150.503 202.365 150.743 202.488C150.983 202.611 151.167 202.773 151.295 202.976C151.429 203.173 151.495 203.384 151.495 203.608C151.495 203.96 151.389 204.245 151.175 204.464C150.967 204.677 150.661 204.859 150.255 205.008C150.618 205.179 150.885 205.373 151.055 205.592C151.231 205.811 151.319 206.077 151.319 206.392C151.319 206.739 151.223 207.04 151.031 207.296C150.845 207.552 150.591 207.749 150.271 207.888C149.951 208.027 149.591 208.096 149.191 208.096C148.845 208.096 148.533 208.035 148.255 207.912C147.978 207.789 147.759 207.619 147.599 207.4C147.439 207.181 147.359 206.931 147.359 206.648C147.359 206.227 147.487 205.877 147.743 205.6C148.005 205.317 148.391 205.093 148.903 204.928ZM149.855 202.896C149.69 202.896 149.53 202.928 149.375 202.992C149.226 203.056 149.103 203.152 149.007 203.28C148.911 203.403 148.863 203.557 148.863 203.744C148.863 203.947 148.943 204.131 149.103 204.296C149.269 204.456 149.471 204.595 149.711 204.712C150.005 204.627 150.255 204.496 150.463 204.32C150.671 204.139 150.775 203.931 150.775 203.696C150.775 203.477 150.69 203.291 150.519 203.136C150.354 202.976 150.133 202.896 149.855 202.896ZM149.271 207.456C149.495 207.456 149.706 207.416 149.903 207.336C150.101 207.251 150.258 207.131 150.375 206.976C150.498 206.821 150.559 206.637 150.559 206.424C150.559 206.189 150.466 205.973 150.279 205.776C150.093 205.579 149.826 205.416 149.479 205.288C149.25 205.336 149.031 205.416 148.823 205.528C148.615 205.635 148.445 205.773 148.311 205.944C148.183 206.109 148.119 206.307 148.119 206.536C148.119 206.797 148.229 207.016 148.447 207.192C148.666 207.368 148.941 207.456 149.271 207.456ZM156.315 208.096C155.781 208.096 155.373 207.909 155.091 207.536C154.813 207.157 154.675 206.645 154.675 206C154.675 205.552 154.723 205.109 154.819 204.672C154.915 204.229 155.061 203.832 155.259 203.48C155.456 203.123 155.707 202.837 156.011 202.624C156.32 202.411 156.683 202.304 157.099 202.304C157.632 202.304 158.037 202.493 158.315 202.872C158.597 203.245 158.739 203.755 158.739 204.4C158.739 204.848 158.691 205.293 158.595 205.736C158.499 206.173 158.352 206.571 158.155 206.928C157.957 207.28 157.704 207.563 157.395 207.776C157.091 207.989 156.731 208.096 156.315 208.096ZM156.395 207.44C156.651 207.44 156.875 207.357 157.067 207.192C157.264 207.021 157.429 206.792 157.563 206.504C157.696 206.216 157.795 205.888 157.859 205.52C157.928 205.147 157.963 204.757 157.963 204.352C157.963 203.904 157.883 203.56 157.723 203.32C157.568 203.08 157.333 202.96 157.019 202.96C156.763 202.96 156.536 203.045 156.339 203.216C156.147 203.381 155.984 203.608 155.851 203.896C155.717 204.184 155.616 204.515 155.547 204.888C155.483 205.256 155.451 205.643 155.451 206.048C155.451 206.496 155.531 206.84 155.691 207.08C155.851 207.32 156.085 207.44 156.395 207.44ZM160.991 207.44C161.317 207.44 161.623 207.272 161.911 206.936C162.199 206.595 162.402 206.056 162.519 205.32C162.146 205.667 161.738 205.84 161.295 205.84C161.018 205.84 160.762 205.779 160.527 205.656C160.293 205.528 160.103 205.347 159.959 205.112C159.821 204.877 159.751 204.597 159.751 204.272C159.751 203.904 159.837 203.573 160.007 203.28C160.178 202.981 160.413 202.744 160.711 202.568C161.01 202.392 161.346 202.304 161.719 202.304C162.237 202.304 162.645 202.467 162.943 202.792C163.087 202.947 163.197 203.128 163.271 203.336C163.346 203.544 163.383 203.792 163.383 204.08C163.383 204.581 163.335 205.072 163.239 205.552C163.149 206.027 163.005 206.456 162.807 206.84C162.615 207.224 162.362 207.531 162.047 207.76C161.738 207.984 161.367 208.096 160.935 208.096C160.626 208.096 160.346 208.037 160.095 207.92C159.85 207.803 159.642 207.653 159.471 207.472L160.023 206.96C160.157 207.109 160.301 207.227 160.455 207.312C160.615 207.397 160.794 207.44 160.991 207.44ZM162.639 204.176C162.639 203.776 162.549 203.472 162.367 203.264C162.191 203.051 161.954 202.944 161.655 202.944C161.442 202.944 161.247 203 161.071 203.112C160.895 203.224 160.754 203.376 160.647 203.568C160.546 203.76 160.495 203.979 160.495 204.224C160.495 204.533 160.581 204.781 160.751 204.968C160.927 205.155 161.159 205.248 161.447 205.248C161.65 205.248 161.853 205.2 162.055 205.104C162.263 205.003 162.45 204.861 162.615 204.68C162.626 204.584 162.631 204.499 162.631 204.424C162.637 204.349 162.639 204.267 162.639 204.176ZM168.251 207.36L168.963 203.336L167.771 204.168L167.443 203.592L169.315 202.4H169.843L168.971 207.36H169.923L169.811 208H166.995L167.107 207.36H168.251ZM173.104 208.096C172.57 208.096 172.162 207.909 171.88 207.536C171.602 207.157 171.464 206.645 171.464 206C171.464 205.552 171.512 205.109 171.608 204.672C171.704 204.229 171.85 203.832 172.048 203.48C172.245 203.123 172.496 202.837 172.8 202.624C173.109 202.411 173.472 202.304 173.888 202.304C174.421 202.304 174.826 202.493 175.104 202.872C175.386 203.245 175.528 203.755 175.528 204.4C175.528 204.848 175.48 205.293 175.384 205.736C175.288 206.173 175.141 206.571 174.944 206.928C174.746 207.28 174.493 207.563 174.184 207.776C173.88 207.989 173.52 208.096 173.104 208.096ZM173.184 207.44C173.44 207.44 173.664 207.357 173.856 207.192C174.053 207.021 174.218 206.792 174.352 206.504C174.485 206.216 174.584 205.888 174.648 205.52C174.717 205.147 174.752 204.757 174.752 204.352C174.752 203.904 174.672 203.56 174.512 203.32C174.357 203.08 174.122 202.96 173.808 202.96C173.552 202.96 173.325 203.045 173.128 203.216C172.936 203.381 172.773 203.608 172.64 203.896C172.506 204.184 172.405 204.515 172.336 204.888C172.272 205.256 172.24 205.643 172.24 206.048C172.24 206.496 172.32 206.84 172.48 207.08C172.64 207.32 172.874 207.44 173.184 207.44ZM180.243 207.36L180.955 203.336L179.763 204.168L179.435 203.592L181.307 202.4H181.835L180.963 207.36H181.915L181.803 208H178.987L179.099 207.36H180.243ZM185.04 207.36L185.752 203.336L184.56 204.168L184.232 203.592L186.104 202.4H186.632L185.76 207.36H186.712L186.6 208H183.784L183.896 207.36H185.04ZM192.235 207.36L192.947 203.336L191.755 204.168L191.427 203.592L193.299 202.4H193.827L192.955 207.36H193.907L193.795 208H190.979L191.091 207.36H192.235ZM199.312 203.656C199.312 203.933 199.245 204.184 199.112 204.408C198.984 204.627 198.813 204.827 198.6 205.008C198.387 205.189 198.157 205.365 197.912 205.536C197.672 205.701 197.437 205.875 197.208 206.056C196.984 206.232 196.789 206.424 196.624 206.632C196.459 206.84 196.349 207.077 196.296 207.344H198.84L198.728 208H195.512C195.507 207.957 195.501 207.909 195.496 207.856C195.491 207.803 195.488 207.752 195.488 207.704C195.488 207.331 195.56 207.003 195.704 206.72C195.853 206.432 196.043 206.176 196.272 205.952C196.507 205.728 196.752 205.523 197.008 205.336C197.269 205.149 197.515 204.973 197.744 204.808C197.979 204.637 198.168 204.464 198.312 204.288C198.461 204.112 198.536 203.92 198.536 203.712C198.536 203.477 198.456 203.291 198.296 203.152C198.136 203.013 197.939 202.944 197.704 202.944C197.475 202.944 197.267 202.987 197.08 203.072C196.899 203.157 196.717 203.277 196.536 203.432L196.2 202.888C196.419 202.712 196.656 202.571 196.912 202.464C197.168 202.357 197.461 202.304 197.792 202.304C198.096 202.304 198.36 202.363 198.584 202.48C198.813 202.597 198.992 202.757 199.12 202.96C199.248 203.163 199.312 203.395 199.312 203.656ZM204.227 207.36L204.939 203.336L203.747 204.168L203.419 203.592L205.291 202.4H205.819L204.947 207.36H205.899L205.787 208H202.971L203.083 207.36H204.227ZM208.28 205.376L208.376 204.792H208.632C209.155 204.792 209.574 204.699 209.888 204.512C210.203 204.32 210.36 204.061 210.36 203.736C210.36 203.491 210.275 203.296 210.104 203.152C209.939 203.003 209.726 202.928 209.464 202.928C209.219 202.928 209.008 202.968 208.832 203.048C208.656 203.123 208.499 203.211 208.36 203.312L208.08 202.768C208.267 202.635 208.48 202.525 208.72 202.44C208.966 202.349 209.243 202.304 209.552 202.304C209.878 202.304 210.155 202.365 210.384 202.488C210.619 202.611 210.798 202.773 210.92 202.976C211.043 203.173 211.104 203.387 211.104 203.616C211.104 203.989 210.995 204.293 210.776 204.528C210.558 204.757 210.238 204.936 209.816 205.064C210.152 205.181 210.411 205.355 210.592 205.584C210.774 205.813 210.864 206.085 210.864 206.4C210.864 206.741 210.776 207.04 210.6 207.296C210.424 207.552 210.182 207.749 209.872 207.888C209.568 208.027 209.219 208.096 208.824 208.096C208.52 208.096 208.232 208.056 207.96 207.976C207.694 207.891 207.467 207.776 207.28 207.632L207.704 207.064C207.838 207.176 207.998 207.269 208.184 207.344C208.371 207.419 208.584 207.456 208.824 207.456C209.187 207.456 209.488 207.368 209.728 207.192C209.968 207.016 210.088 206.763 210.088 206.432C210.088 206.139 209.974 205.891 209.744 205.688C209.515 205.48 209.163 205.376 208.688 205.376H208.28ZM216.22 207.36L216.932 203.336L215.74 204.168L215.412 203.592L217.284 202.4H217.812L216.94 207.36H217.892L217.78 208H214.964L215.076 207.36H216.22ZM222.448 206.792L222.24 208H221.536L221.744 206.792H219.36L219.456 206.232L221.8 202.344L222.416 202.608L220.296 206.152H221.856L222.144 204.56H222.848L222.56 206.152H223.248L223.136 206.792H222.448ZM228.212 207.36L228.924 203.336L227.732 204.168L227.404 203.592L229.276 202.4H229.804L228.932 207.36H229.884L229.772 208H226.956L227.068 207.36H228.212ZM231.737 207.024C231.881 207.152 232.051 207.253 232.249 207.328C232.446 207.403 232.662 207.44 232.897 207.44C233.281 207.44 233.601 207.336 233.857 207.128C234.113 206.92 234.241 206.635 234.241 206.272C234.241 205.963 234.126 205.709 233.897 205.512C233.673 205.315 233.345 205.216 232.913 205.216H232.121L232.609 202.4H235.369L235.257 203.048H233.177L232.913 204.568H233.065C233.502 204.568 233.865 204.643 234.153 204.792C234.441 204.936 234.657 205.131 234.801 205.376C234.945 205.616 235.017 205.88 235.017 206.168C235.017 206.547 234.926 206.883 234.745 207.176C234.563 207.464 234.31 207.691 233.985 207.856C233.665 208.016 233.289 208.096 232.857 208.096C232.537 208.096 232.241 208.056 231.969 207.976C231.702 207.891 231.481 207.779 231.305 207.64L231.737 207.024ZM240.204 207.36L240.916 203.336L239.724 204.168L239.396 203.592L241.268 202.4H241.796L240.924 207.36H241.876L241.764 208H238.948L239.06 207.36H240.204ZM246.905 203.04C245.63 203.04 244.803 203.699 244.425 205.016C244.579 204.845 244.763 204.709 244.977 204.608C245.195 204.507 245.441 204.456 245.713 204.456C246.001 204.456 246.257 204.523 246.481 204.656C246.71 204.784 246.889 204.965 247.017 205.2C247.145 205.429 247.209 205.696 247.209 206C247.209 206.389 247.126 206.744 246.961 207.064C246.795 207.379 246.563 207.629 246.265 207.816C245.966 208.003 245.617 208.096 245.217 208.096C244.881 208.096 244.582 208.021 244.321 207.872C244.059 207.723 243.854 207.507 243.705 207.224C243.561 206.941 243.489 206.597 243.489 206.192C243.489 205.717 243.558 205.256 243.697 204.808C243.841 204.355 244.054 203.947 244.337 203.584C244.625 203.216 244.985 202.925 245.417 202.712C245.849 202.493 246.353 202.384 246.929 202.384C246.977 202.384 247.038 202.387 247.113 202.392C247.193 202.392 247.259 202.395 247.313 202.4L247.201 203.056C247.158 203.051 247.107 203.048 247.049 203.048C246.995 203.043 246.947 203.04 246.905 203.04ZM245.513 205.056C245.049 205.056 244.63 205.288 244.257 205.752C244.241 205.88 244.233 206.021 244.233 206.176C244.233 206.565 244.329 206.877 244.521 207.112C244.713 207.341 244.955 207.456 245.249 207.456C245.478 207.456 245.683 207.395 245.865 207.272C246.051 207.149 246.198 206.984 246.305 206.776C246.411 206.563 246.465 206.328 246.465 206.072C246.465 205.768 246.374 205.523 246.193 205.336C246.011 205.149 245.785 205.056 245.513 205.056ZM252.196 207.36L252.908 203.336L251.716 204.168L251.388 203.592L253.26 202.4H253.788L252.916 207.36H253.868L253.756 208H250.94L251.052 207.36H252.196ZM255.985 208C256.097 207.328 256.228 206.749 256.377 206.264C256.532 205.779 256.713 205.355 256.921 204.992C257.134 204.629 257.388 204.296 257.681 203.992C257.974 203.688 258.316 203.376 258.705 203.056H256.041L256.153 202.4H259.697L259.601 202.976C259.244 203.275 258.932 203.563 258.665 203.84C258.398 204.112 258.166 204.389 257.969 204.672C257.777 204.949 257.609 205.251 257.465 205.576C257.326 205.901 257.201 206.261 257.089 206.656C256.982 207.051 256.884 207.499 256.793 208H255.985ZM264.188 207.36L264.9 203.336L263.708 204.168L263.38 203.592L265.252 202.4H265.78L264.908 207.36H265.86L265.748 208H262.932L263.044 207.36H264.188ZM268.825 204.928C268.569 204.768 268.377 204.597 268.249 204.416C268.126 204.229 268.065 204.008 268.065 203.752C268.065 203.475 268.145 203.227 268.305 203.008C268.465 202.789 268.676 202.619 268.937 202.496C269.204 202.368 269.497 202.304 269.817 202.304C270.142 202.304 270.425 202.365 270.665 202.488C270.905 202.611 271.089 202.773 271.217 202.976C271.35 203.173 271.417 203.384 271.417 203.608C271.417 203.96 271.31 204.245 271.097 204.464C270.889 204.677 270.582 204.859 270.177 205.008C270.54 205.179 270.806 205.373 270.977 205.592C271.153 205.811 271.241 206.077 271.241 206.392C271.241 206.739 271.145 207.04 270.953 207.296C270.766 207.552 270.513 207.749 270.193 207.888C269.873 208.027 269.513 208.096 269.113 208.096C268.766 208.096 268.454 208.035 268.177 207.912C267.9 207.789 267.681 207.619 267.521 207.4C267.361 207.181 267.281 206.931 267.281 206.648C267.281 206.227 267.409 205.877 267.665 205.6C267.926 205.317 268.313 205.093 268.825 204.928ZM269.777 202.896C269.612 202.896 269.452 202.928 269.297 202.992C269.148 203.056 269.025 203.152 268.929 203.28C268.833 203.403 268.785 203.557 268.785 203.744C268.785 203.947 268.865 204.131 269.025 204.296C269.19 204.456 269.393 204.595 269.633 204.712C269.926 204.627 270.177 204.496 270.385 204.32C270.593 204.139 270.697 203.931 270.697 203.696C270.697 203.477 270.612 203.291 270.441 203.136C270.276 202.976 270.054 202.896 269.777 202.896ZM269.193 207.456C269.417 207.456 269.628 207.416 269.825 207.336C270.022 207.251 270.18 207.131 270.297 206.976C270.42 206.821 270.481 206.637 270.481 206.424C270.481 206.189 270.388 205.973 270.201 205.776C270.014 205.579 269.748 205.416 269.401 205.288C269.172 205.336 268.953 205.416 268.745 205.528C268.537 205.635 268.366 205.773 268.233 205.944C268.105 206.109 268.041 206.307 268.041 206.536C268.041 206.797 268.15 207.016 268.369 207.192C268.588 207.368 268.862 207.456 269.193 207.456ZM276.18 207.36L276.892 203.336L275.7 204.168L275.372 203.592L277.244 202.4H277.772L276.9 207.36H277.852L277.74 208H274.924L275.036 207.36H276.18ZM280.913 207.44C281.239 207.44 281.545 207.272 281.833 206.936C282.121 206.595 282.324 206.056 282.441 205.32C282.068 205.667 281.66 205.84 281.217 205.84C280.94 205.84 280.684 205.779 280.449 205.656C280.215 205.528 280.025 205.347 279.881 205.112C279.743 204.877 279.673 204.597 279.673 204.272C279.673 203.904 279.759 203.573 279.929 203.28C280.1 202.981 280.335 202.744 280.633 202.568C280.932 202.392 281.268 202.304 281.641 202.304C282.159 202.304 282.567 202.467 282.865 202.792C283.009 202.947 283.119 203.128 283.193 203.336C283.268 203.544 283.305 203.792 283.305 204.08C283.305 204.581 283.257 205.072 283.161 205.552C283.071 206.027 282.927 206.456 282.729 206.84C282.537 207.224 282.284 207.531 281.969 207.76C281.66 207.984 281.289 208.096 280.857 208.096C280.548 208.096 280.268 208.037 280.017 207.92C279.772 207.803 279.564 207.653 279.393 207.472L279.945 206.96C280.079 207.109 280.223 207.227 280.377 207.312C280.537 207.397 280.716 207.44 280.913 207.44ZM282.561 204.176C282.561 203.776 282.471 203.472 282.289 203.264C282.113 203.051 281.876 202.944 281.577 202.944C281.364 202.944 281.169 203 280.993 203.112C280.817 203.224 280.676 203.376 280.569 203.568C280.468 203.76 280.417 203.979 280.417 204.224C280.417 204.533 280.503 204.781 280.673 204.968C280.849 205.155 281.081 205.248 281.369 205.248C281.572 205.248 281.775 205.2 281.977 205.104C282.185 205.003 282.372 204.861 282.537 204.68C282.548 204.584 282.553 204.499 282.553 204.424C282.559 204.349 282.561 204.267 282.561 204.176ZM290.453 203.656C290.453 203.933 290.386 204.184 290.253 204.408C290.125 204.627 289.954 204.827 289.741 205.008C289.527 205.189 289.298 205.365 289.053 205.536C288.813 205.701 288.578 205.875 288.349 206.056C288.125 206.232 287.93 206.424 287.765 206.632C287.599 206.84 287.49 207.077 287.437 207.344H289.981L289.869 208H286.653C286.647 207.957 286.642 207.909 286.637 207.856C286.631 207.803 286.629 207.752 286.629 207.704C286.629 207.331 286.701 207.003 286.845 206.72C286.994 206.432 287.183 206.176 287.413 205.952C287.647 205.728 287.893 205.523 288.149 205.336C288.41 205.149 288.655 204.973 288.885 204.808C289.119 204.637 289.309 204.464 289.453 204.288C289.602 204.112 289.677 203.92 289.677 203.712C289.677 203.477 289.597 203.291 289.437 203.152C289.277 203.013 289.079 202.944 288.845 202.944C288.615 202.944 288.407 202.987 288.221 203.072C288.039 203.157 287.858 203.277 287.677 203.432L287.341 202.888C287.559 202.712 287.797 202.571 288.053 202.464C288.309 202.357 288.602 202.304 288.933 202.304C289.237 202.304 289.501 202.363 289.725 202.48C289.954 202.597 290.133 202.757 290.261 202.96C290.389 203.163 290.453 203.395 290.453 203.656ZM293.026 208.096C292.492 208.096 292.084 207.909 291.802 207.536C291.524 207.157 291.386 206.645 291.386 206C291.386 205.552 291.434 205.109 291.53 204.672C291.626 204.229 291.772 203.832 291.97 203.48C292.167 203.123 292.418 202.837 292.722 202.624C293.031 202.411 293.394 202.304 293.81 202.304C294.343 202.304 294.748 202.493 295.026 202.872C295.308 203.245 295.45 203.755 295.45 204.4C295.45 204.848 295.402 205.293 295.306 205.736C295.209 206.173 295.063 206.571 294.866 206.928C294.668 207.28 294.415 207.563 294.106 207.776C293.802 207.989 293.442 208.096 293.026 208.096ZM293.106 207.44C293.362 207.44 293.586 207.357 293.778 207.192C293.975 207.021 294.14 206.792 294.274 206.504C294.407 206.216 294.506 205.888 294.57 205.52C294.639 205.147 294.674 204.757 294.674 204.352C294.674 203.904 294.594 203.56 294.434 203.32C294.279 203.08 294.044 202.96 293.73 202.96C293.474 202.96 293.247 203.045 293.049 203.216C292.858 203.381 292.695 203.608 292.562 203.896C292.428 204.184 292.327 204.515 292.258 204.888C292.194 205.256 292.162 205.643 292.162 206.048C292.162 206.496 292.242 206.84 292.402 207.08C292.562 207.32 292.796 207.44 293.106 207.44ZM302.445 203.656C302.445 203.933 302.378 204.184 302.245 204.408C302.117 204.627 301.946 204.827 301.733 205.008C301.519 205.189 301.29 205.365 301.045 205.536C300.805 205.701 300.57 205.875 300.341 206.056C300.117 206.232 299.922 206.424 299.757 206.632C299.591 206.84 299.482 207.077 299.429 207.344H301.973L301.861 208H298.645C298.639 207.957 298.634 207.909 298.629 207.856C298.623 207.803 298.621 207.752 298.621 207.704C298.621 207.331 298.693 207.003 298.837 206.72C298.986 206.432 299.175 206.176 299.405 205.952C299.639 205.728 299.885 205.523 300.141 205.336C300.402 205.149 300.647 204.973 300.877 204.808C301.111 204.637 301.301 204.464 301.445 204.288C301.594 204.112 301.669 203.92 301.669 203.712C301.669 203.477 301.589 203.291 301.429 203.152C301.269 203.013 301.071 202.944 300.837 202.944C300.607 202.944 300.399 202.987 300.213 203.072C300.031 203.157 299.85 203.277 299.669 203.432L299.333 202.888C299.551 202.712 299.789 202.571 300.045 202.464C300.301 202.357 300.594 202.304 300.925 202.304C301.229 202.304 301.493 202.363 301.717 202.48C301.946 202.597 302.125 202.757 302.253 202.96C302.381 203.163 302.445 203.395 302.445 203.656ZM304.962 207.36L305.674 203.336L304.482 204.168L304.154 203.592L306.026 202.4H306.554L305.682 207.36H306.634L306.522 208H303.706L303.818 207.36H304.962ZM314.437 203.656C314.437 203.933 314.37 204.184 314.237 204.408C314.109 204.627 313.938 204.827 313.725 205.008C313.512 205.189 313.282 205.365 313.037 205.536C312.797 205.701 312.562 205.875 312.333 206.056C312.109 206.232 311.914 206.424 311.749 206.632C311.584 206.84 311.474 207.077 311.421 207.344H313.965L313.853 208H310.637C310.632 207.957 310.626 207.909 310.621 207.856C310.616 207.803 310.613 207.752 310.613 207.704C310.613 207.331 310.685 207.003 310.829 206.72C310.978 206.432 311.168 206.176 311.397 205.952C311.632 205.728 311.877 205.523 312.133 205.336C312.394 205.149 312.64 204.973 312.869 204.808C313.104 204.637 313.293 204.464 313.437 204.288C313.586 204.112 313.661 203.92 313.661 203.712C313.661 203.477 313.581 203.291 313.421 203.152C313.261 203.013 313.064 202.944 312.829 202.944C312.6 202.944 312.392 202.987 312.205 203.072C312.024 203.157 311.842 203.277 311.661 203.432L311.325 202.888C311.544 202.712 311.781 202.571 312.037 202.464C312.293 202.357 312.586 202.304 312.917 202.304C313.221 202.304 313.485 202.363 313.709 202.48C313.938 202.597 314.117 202.757 314.245 202.96C314.373 203.163 314.437 203.395 314.437 203.656ZM319.234 203.656C319.234 203.933 319.167 204.184 319.034 204.408C318.906 204.627 318.735 204.827 318.522 205.008C318.309 205.189 318.079 205.365 317.834 205.536C317.594 205.701 317.359 205.875 317.13 206.056C316.906 206.232 316.711 206.424 316.546 206.632C316.381 206.84 316.271 207.077 316.218 207.344H318.762L318.65 208H315.434C315.429 207.957 315.423 207.909 315.418 207.856C315.413 207.803 315.41 207.752 315.41 207.704C315.41 207.331 315.482 207.003 315.626 206.72C315.775 206.432 315.965 206.176 316.194 205.952C316.429 205.728 316.674 205.523 316.93 205.336C317.191 205.149 317.437 204.973 317.666 204.808C317.901 204.637 318.09 204.464 318.234 204.288C318.383 204.112 318.458 203.92 318.458 203.712C318.458 203.477 318.378 203.291 318.218 203.152C318.058 203.013 317.861 202.944 317.626 202.944C317.397 202.944 317.189 202.987 317.002 203.072C316.821 203.157 316.639 203.277 316.458 203.432L316.122 202.888C316.341 202.712 316.578 202.571 316.834 202.464C317.09 202.357 317.383 202.304 317.714 202.304C318.018 202.304 318.282 202.363 318.506 202.48C318.735 202.597 318.914 202.757 319.042 202.96C319.17 203.163 319.234 203.395 319.234 203.656ZM326.429 203.656C326.429 203.933 326.363 204.184 326.229 204.408C326.101 204.627 325.931 204.827 325.717 205.008C325.504 205.189 325.275 205.365 325.029 205.536C324.789 205.701 324.555 205.875 324.325 206.056C324.101 206.232 323.907 206.424 323.741 206.632C323.576 206.84 323.467 207.077 323.413 207.344H325.957L325.845 208H322.629C322.624 207.957 322.619 207.909 322.613 207.856C322.608 207.803 322.605 207.752 322.605 207.704C322.605 207.331 322.677 207.003 322.821 206.72C322.971 206.432 323.16 206.176 323.389 205.952C323.624 205.728 323.869 205.523 324.125 205.336C324.387 205.149 324.632 204.973 324.861 204.808C325.096 204.637 325.285 204.464 325.429 204.288C325.579 204.112 325.653 203.92 325.653 203.712C325.653 203.477 325.573 203.291 325.413 203.152C325.253 203.013 325.056 202.944 324.821 202.944C324.592 202.944 324.384 202.987 324.197 203.072C324.016 203.157 323.835 203.277 323.653 203.432L323.317 202.888C323.536 202.712 323.773 202.571 324.029 202.464C324.285 202.357 324.579 202.304 324.909 202.304C325.213 202.304 325.477 202.363 325.701 202.48C325.931 202.597 326.109 202.757 326.237 202.96C326.365 203.163 326.429 203.395 326.429 203.656ZM328.202 205.376L328.298 204.792H328.554C329.077 204.792 329.495 204.699 329.81 204.512C330.125 204.32 330.282 204.061 330.282 203.736C330.282 203.491 330.197 203.296 330.026 203.152C329.861 203.003 329.647 202.928 329.386 202.928C329.141 202.928 328.93 202.968 328.754 203.048C328.578 203.123 328.421 203.211 328.282 203.312L328.002 202.768C328.189 202.635 328.402 202.525 328.642 202.44C328.887 202.349 329.165 202.304 329.474 202.304C329.799 202.304 330.077 202.365 330.306 202.488C330.541 202.611 330.719 202.773 330.842 202.976C330.965 203.173 331.026 203.387 331.026 203.616C331.026 203.989 330.917 204.293 330.698 204.528C330.479 204.757 330.159 204.936 329.738 205.064C330.074 205.181 330.333 205.355 330.514 205.584C330.695 205.813 330.786 206.085 330.786 206.4C330.786 206.741 330.698 207.04 330.522 207.296C330.346 207.552 330.103 207.749 329.794 207.888C329.49 208.027 329.141 208.096 328.746 208.096C328.442 208.096 328.154 208.056 327.882 207.976C327.615 207.891 327.389 207.776 327.202 207.632L327.626 207.064C327.759 207.176 327.919 207.269 328.106 207.344C328.293 207.419 328.506 207.456 328.746 207.456C329.109 207.456 329.41 207.368 329.65 207.192C329.89 207.016 330.01 206.763 330.01 206.432C330.01 206.139 329.895 205.891 329.666 205.688C329.437 205.48 329.085 205.376 328.61 205.376H328.202ZM338.421 203.656C338.421 203.933 338.355 204.184 338.221 204.408C338.093 204.627 337.923 204.827 337.709 205.008C337.496 205.189 337.267 205.365 337.021 205.536C336.781 205.701 336.547 205.875 336.317 206.056C336.093 206.232 335.899 206.424 335.733 206.632C335.568 206.84 335.459 207.077 335.405 207.344H337.949L337.837 208H334.621C334.616 207.957 334.611 207.909 334.605 207.856C334.6 207.803 334.597 207.752 334.597 207.704C334.597 207.331 334.669 207.003 334.813 206.72C334.963 206.432 335.152 206.176 335.381 205.952C335.616 205.728 335.861 205.523 336.117 205.336C336.379 205.149 336.624 204.973 336.853 204.808C337.088 204.637 337.277 204.464 337.421 204.288C337.571 204.112 337.645 203.92 337.645 203.712C337.645 203.477 337.565 203.291 337.405 203.152C337.245 203.013 337.048 202.944 336.813 202.944C336.584 202.944 336.376 202.987 336.189 203.072C336.008 203.157 335.827 203.277 335.645 203.432L335.309 202.888C335.528 202.712 335.765 202.571 336.021 202.464C336.277 202.357 336.571 202.304 336.901 202.304C337.205 202.304 337.469 202.363 337.693 202.48C337.923 202.597 338.101 202.757 338.229 202.96C338.357 203.163 338.421 203.395 338.421 203.656ZM342.37 206.792L342.162 208H341.458L341.666 206.792H339.282L339.378 206.232L341.722 202.344L342.338 202.608L340.218 206.152H341.778L342.066 204.56H342.77L342.482 206.152H343.17L343.058 206.792H342.37Z" fill="#454459"/>
<path d="M55.18 56.18H56.72V61.62H55.18V56.18ZM47.02 55.62C50.82 55.62 57.08 55.56 63.02 55.46L62.92 56.7C57.12 56.86 50.94 56.96 47.08 57.02L47.02 55.62ZM54.62 49.98L55.98 50.6C54.84 51.72 53.34 52.88 52.16 53.64L51.02 53.06C52.2 52.26 53.72 50.94 54.62 49.98ZM58.82 51.2L60.24 51.84C58.16 53.54 55.32 55.42 53.1 56.6L51.96 55.94C54.2 54.74 57.1 52.72 58.82 51.2ZM49.16 52.8L50.24 51.9C51.88 52.64 53.92 53.8 55.04 54.54L53.94 55.54C52.84 54.74 50.78 53.54 49.16 52.8ZM58.7 58.38L59.98 57.64C61.64 58.52 63.72 59.82 64.86 60.64L63.56 61.5C62.44 60.64 60.32 59.26 58.7 58.38ZM51.62 57.66L53.04 58.22C51.76 59.44 49.84 60.7 48.22 61.5C47.96 61.22 47.38 60.7 47 60.48C48.68 59.78 50.48 58.72 51.62 57.66ZM59.22 54L60.48 53.38C62.12 54.46 64.12 56.08 65.14 57.22L63.76 57.92C62.86 56.82 60.88 55.14 59.22 54ZM51.96 45.22H55.98V46.46H51.96V45.22ZM56.9 43.22H58.38V48.62C58.38 49.18 58.54 49.28 59.5 49.28C59.92 49.28 62.16 49.28 62.76 49.28C63.5 49.28 63.64 49.04 63.72 47.44C64.04 47.66 64.64 47.88 65.06 47.98C64.88 50.08 64.42 50.62 62.9 50.62C62.44 50.62 59.76 50.62 59.36 50.62C57.38 50.62 56.9 50.22 56.9 48.62V43.22ZM46.8 49.68C49.08 49.42 52.62 48.94 56.08 48.46L56.12 49.7C52.82 50.2 49.36 50.7 46.96 51.04L46.8 49.68ZM63.18 44.26L64.34 45.32C62.58 46.12 60.04 46.82 57.88 47.3C57.8 47 57.6 46.5 57.42 46.2C59.48 45.7 61.86 44.96 63.18 44.26ZM51.38 43.22H52.78V49.8L51.38 49.92V43.22ZM48.2 44.68H49.52V50.18L48.2 50.3V44.68ZM70.76 46.28H75.86V47.7H70.76V46.28ZM79.5 43.22H81.04V61.56H79.5V43.22ZM68.58 51.3L69.36 50.2C71.04 51.12 73.1 52.54 74.08 53.56L73.24 54.8C72.28 53.76 70.26 52.26 68.58 51.3ZM71.34 43.2L72.84 43.5C71.78 47.42 70.02 50.9 67.78 53.16C67.52 52.9 66.88 52.42 66.52 52.18C68.74 50.14 70.4 46.82 71.34 43.2ZM77.44 47.96C79.14 51.1 82.46 54.2 85.7 55.66C85.34 55.96 84.88 56.52 84.62 56.92C81.36 55.24 78.06 51.92 76.18 48.44L77.44 47.96ZM75.44 46.28H75.72L76 46.22L76.96 46.54C75.76 54.32 72.46 59.1 68.18 61.5C67.92 61.16 67.34 60.62 66.98 60.38C71.24 58.14 74.4 53.74 75.44 46.62V46.28ZM103.86 53.22L105.06 54.1C103.98 55.08 102.62 56.2 101.58 56.9L100.66 56.18C101.66 55.42 103.06 54.12 103.86 53.22ZM98.9 43.18L100.56 43.5C100.08 44.46 99.52 45.5 99.06 46.16L97.8 45.84C98.18 45.1 98.66 43.98 98.9 43.18ZM96.18 49.38V51.12H102.92V49.38H96.18ZM96.18 46.48V48.22H102.92V46.48H96.18ZM94.8 45.28H104.36V52.34H94.8V45.28ZM98.84 51.68H100.2V60C100.2 60.76 100.06 61.14 99.56 61.36C99.04 61.58 98.24 61.6 96.98 61.6C96.94 61.22 96.76 60.66 96.58 60.28C97.48 60.3 98.28 60.3 98.52 60.28C98.78 60.28 98.84 60.22 98.84 60V51.68ZM94.04 54.08H97.38V55.34H94.04V54.08ZM97.04 54.08H97.3L97.56 54.04L98.38 54.38C97.66 57.56 96.08 59.66 94.08 60.8C93.9 60.48 93.44 59.98 93.14 59.76C95.02 58.78 96.46 56.94 97.04 54.32V54.08ZM100.02 51.78C100.58 54.6 102.02 58.04 105.52 59.56C105.24 59.84 104.8 60.4 104.6 60.78C101.18 59.02 99.74 55.4 99.2 52.8L100.02 51.78ZM89.92 43.22L91.24 43.72C90.48 45.2 89.54 47 88.76 48.1L87.74 47.66C88.46 46.5 89.4 44.54 89.92 43.22ZM92.16 45.5L93.42 46.08C92.04 48.3 90.1 51.14 88.6 52.88L87.68 52.36C89.18 50.58 91.06 47.6 92.16 45.5ZM86.72 47.38L87.52 46.42C88.6 47.4 89.82 48.74 90.34 49.66L89.48 50.78C88.98 49.82 87.78 48.4 86.72 47.38ZM91.38 50.08L92.46 49.62C93.3 50.94 94.12 52.66 94.4 53.76L93.22 54.3C92.96 53.18 92.18 51.4 91.38 50.08ZM86.56 52.06C88.3 51.98 90.8 51.86 93.32 51.72V52.98C90.94 53.14 88.54 53.28 86.72 53.4L86.56 52.06ZM91.9 54.92L93 54.58C93.52 55.72 93.94 57.2 94.06 58.16L92.9 58.52C92.8 57.56 92.38 56.06 91.9 54.92ZM87.76 54.64L89.02 54.86C88.76 56.76 88.3 58.68 87.66 59.96C87.42 59.8 86.82 59.54 86.52 59.4C87.16 58.18 87.54 56.38 87.76 54.64ZM89.88 52.64H91.2V61.6H89.88V52.64ZM114.8 43.28H116.28V48.98C116.28 49.66 116.52 49.78 117.82 49.78C118.44 49.78 121.52 49.78 122.32 49.78C123.44 49.78 123.6 49.42 123.74 47.26C124.06 47.5 124.7 47.72 125.1 47.82C124.88 50.48 124.4 51.14 122.42 51.14C121.9 51.14 118.24 51.14 117.74 51.14C115.44 51.14 114.8 50.7 114.8 48.96V43.28ZM122.72 44.4L123.88 45.5C121.74 46.36 118.58 47.1 115.88 47.6C115.8 47.26 115.58 46.76 115.4 46.46C118 45.96 121.04 45.16 122.72 44.4ZM114.8 52.82H124.24V61.5H122.74V54.1H116.22V61.6H114.8V52.82ZM115.54 56.1H123.28V57.32H115.54V56.1ZM115.5 59.42H123.32V60.66H115.5V59.42ZM106.62 53.82C108.38 53.36 111.06 52.6 113.6 51.84L113.8 53.22C111.44 53.96 108.94 54.72 107.04 55.26L106.62 53.82ZM106.86 47.24H113.5V48.66H106.86V47.24ZM109.66 43.22H111.14V59.84C111.14 60.68 110.96 61.1 110.42 61.32C109.9 61.56 109.08 61.6 107.74 61.58C107.7 61.22 107.48 60.6 107.3 60.22C108.2 60.24 109.04 60.24 109.28 60.22C109.56 60.22 109.66 60.14 109.66 59.84V43.22ZM138.74 46.92H145.2V48.32H138.74V46.92ZM139.14 43.2L140.6 43.42C140.02 47.22 139.06 50.9 137.56 53.28C137.34 53.02 136.76 52.48 136.42 52.24C137.84 50.06 138.68 46.66 139.14 43.2ZM142.68 47.66L144.1 47.8C143.28 54.44 141.52 58.86 137.18 61.66C137.04 61.34 136.6 60.72 136.34 60.42C140.4 58.02 142 53.76 142.68 47.66ZM139.48 48.18C140.24 53.66 141.9 58.42 145.3 60.44C144.96 60.72 144.5 61.26 144.26 61.62C140.72 59.3 139.06 54.36 138.2 48.38L139.48 48.18ZM131.42 43.2H132.76V53.7H131.42V43.2ZM129.44 45.48V48.82H134.9V45.48H129.44ZM128.16 44.42H136.22V49.88H128.16V44.42ZM128.96 51.82V53.12H135.36V51.82H128.96ZM127.66 50.8H136.7V54.14H127.66V50.8ZM126.8 55.42C129.5 55.42 133.7 55.36 137.76 55.28L137.7 56.42C133.72 56.52 129.58 56.58 126.84 56.62L126.8 55.42ZM130.8 53.82L132.08 54.12C131.24 55.74 130.1 57.74 129.3 59.04L128.06 58.68C128.88 57.4 130.02 55.36 130.8 53.82ZM129.2 58.32L129.94 57.42C132.28 58.22 134.74 59.36 136.2 60.34L135.24 61.28C133.86 60.3 131.52 59.16 129.2 58.32ZM134.4 55.9L135.7 56.12C134.9 59.38 132.42 60.9 127.86 61.68C127.78 61.3 127.52 60.8 127.28 60.5C131.42 60 133.66 58.72 134.4 55.9ZM126.78 46.56H128.7V46.64H135.6V46.56H137.64V47.72H135.6V47.64H128.7V47.72H126.78V46.56ZM152.74 45.98C154.42 53.28 158 58.42 165.42 60.18C165.08 60.5 164.62 61.16 164.38 61.58C156.78 59.56 153.28 54.22 151.42 46.28L152.74 45.98ZM147.78 44.28H158.98V45.74H147.78V44.28ZM162.68 49.12H162.96L163.24 49.06L164.26 49.46C162.56 56.52 157.82 60.04 152.2 61.62C152.02 61.24 151.66 60.62 151.34 60.3C156.62 59.02 161.2 55.6 162.68 49.4V49.12ZM158.64 44.28H158.82L159.1 44.2L160.24 44.42C159.8 46.48 159.1 49.38 158.48 51.58L156.92 51.36C157.58 49.14 158.3 46.06 158.64 44.46V44.28ZM158.36 49.12H163.02V50.54H158.04L158.36 49.12ZM151.32 44.74H152.84V47.42C152.84 51.42 152.44 56.88 147.78 61.24C147.56 60.86 147.04 60.26 146.7 59.98C151 56 151.32 51 151.32 47.44V44.74ZM174.26 47.38V48.78H182.24V47.38H174.26ZM174.26 44.98V46.34H182.24V44.98H174.26ZM172.88 43.92H183.7V49.84H172.88V43.92ZM175.82 58L177.02 57.8C177.34 58.88 177.6 60.3 177.68 61.22L176.4 61.44C176.36 60.5 176.12 59.1 175.82 58ZM178.8 58.04L179.92 57.68C180.5 58.7 181.06 60.08 181.3 60.98L180.1 61.4C179.92 60.5 179.34 59.08 178.8 58.04ZM181.88 57.82L183.02 57.32C183.92 58.46 184.86 60 185.26 61.04L184.04 61.6C183.66 60.56 182.74 58.98 181.88 57.82ZM173.3 57.46L174.52 57.88C174.12 59.28 173.5 60.78 172.3 61.64L171.2 60.96C172.28 60.18 172.96 58.78 173.3 57.46ZM174.6 49.5L175.82 50.04C175.1 51.08 174.3 52.24 173.66 53L172.74 52.54C173.36 51.72 174.16 50.42 174.6 49.5ZM176.36 51.46L177.52 52.02C176.36 53.56 174.8 55.48 173.56 56.66L172.66 56.16C173.88 54.96 175.46 52.9 176.36 51.46ZM176.08 54.64L177.02 54.2C177.62 55.08 178.2 56.26 178.42 57.06L177.4 57.54C177.18 56.74 176.62 55.54 176.08 54.64ZM171.6 55.9C173.12 55.84 175.28 55.72 177.5 55.6L177.48 56.68C175.4 56.86 173.36 57.02 171.72 57.14L171.6 55.9ZM180.94 49.5L182.14 50.02C181.44 51.06 180.62 52.18 179.96 52.94L179.04 52.48C179.68 51.68 180.48 50.38 180.94 49.5ZM182.82 51.4L183.98 51.96C182.8 53.52 181.2 55.46 179.94 56.66L179.06 56.16C180.3 54.94 181.9 52.86 182.82 51.4ZM182.58 54.58L183.56 54.12C184.26 55.02 184.98 56.24 185.28 57.06L184.2 57.58C183.94 56.76 183.24 55.5 182.58 54.58ZM178.36 55.88C179.9 55.82 182.06 55.72 184.28 55.6L184.26 56.68C182.18 56.86 180.14 57 178.52 57.1L178.36 55.88ZM167.8 44.46L168.66 43.4C169.8 43.92 171.22 44.78 171.92 45.46L171 46.66C170.34 45.98 168.96 45.04 167.8 44.46ZM166.74 49.9L167.58 48.8C168.78 49.26 170.24 50.06 170.96 50.7L170.1 51.9C169.38 51.26 167.94 50.4 166.74 49.9ZM167.18 60.52C168.02 58.98 169.22 56.38 170.08 54.12L171.26 54.96C170.48 57.06 169.44 59.52 168.52 61.38L167.18 60.52ZM171.84 52.38L172.5 51.52C173.48 52.24 174.64 53.32 175.16 54.04L174.46 55.02C173.94 54.26 172.82 53.14 171.84 52.38ZM178.14 52.22L178.82 51.4C179.86 52.16 181.08 53.24 181.62 54L180.9 54.94C180.36 54.16 179.16 53 178.14 52.22ZM190.5 48.82H204.72V50.06H190.5V48.82ZM190.78 54.66H202.22V55.9H190.78V54.66ZM193.72 47.08H195.14V52.18H200.02V47.08H201.48V53.38H193.72V47.08ZM201.82 54.66H202.12L202.4 54.58L203.34 55.1C201.14 59.26 196.02 60.94 190.64 61.62C190.52 61.24 190.24 60.68 190 60.34C195.06 59.86 200 58.3 201.82 54.88V54.66ZM194.34 55.7C196.24 58.36 200.38 59.86 205.22 60.36C204.9 60.68 204.52 61.26 204.34 61.64C199.38 61 195.22 59.3 193.04 56.18L194.34 55.7ZM195.8 43.22H197.34V45.94H195.8V43.22ZM189.14 45.2H204.86V46.56H189.14V45.2ZM188.4 45.2H189.84V50.96C189.84 54.08 189.58 58.6 187.86 61.64C187.6 61.38 186.96 60.96 186.62 60.8C188.26 57.94 188.4 53.88 188.4 50.96V45.2Z" fill="black"/>
</g>
<defs>
<filter id="filter0_d_73_10130" x="-23.0046" y="-22.3041" width="439.41" height="305.41" filterUnits="userSpaceOnUse" color-interpolation-filters="sRGB">
<feFlood flood-opacity="0" result="BackgroundImageFix"/>
<feColorMatrix in="SourceAlpha" type="matrix" values="0 0 0 0 0 0 0 0 0 0 0 0 0 0 0 0 0 0 127 0" result="hardAlpha"/>
<feMorphology radius="4.70046" operator="dilate" in="SourceAlpha" result="effect1_dropShadow_73_10130"/>
<feOffset dx="4.70046" dy="9.40092"/>
<feGaussianBlur stdDeviation="23.5023"/>
<feComposite in2="hardAlpha" operator="out"/>
<feColorMatrix type="matrix" values="0 0 0 0 0.545098 0 0 0 0 0.407843 0 0 0 0 0.67451 0 0 0 0.2 0"/>
<feBlend mode="normal" in2="BackgroundImageFix" result="effect1_dropShadow_73_10130"/>
<feBlend mode="normal" in="SourceGraphic" in2="effect1_dropShadow_73_10130" result="shape"/>
</filter>
<filter id="filter1_d_73_10130" x="172.84" y="53.217" width="31.5833" height="31.5833" filterUnits="userSpaceOnUse" color-interpolation-filters="sRGB">
<feFlood flood-opacity="0" result="BackgroundImageFix"/>
<feColorMatrix in="SourceAlpha" type="matrix" values="0 0 0 0 0 0 0 0 0 0 0 0 0 0 0 0 0 0 127 0" result="hardAlpha"/>
<feOffset dy="1.85833"/>
<feGaussianBlur stdDeviation="4.64583"/>
<feColorMatrix type="matrix" values="0 0 0 0 0 0 0 0 0 0 0 0 0 0 0 0 0 0 0.1 0"/>
<feBlend mode="normal" in2="BackgroundImageFix" result="effect1_dropShadow_73_10130"/>
<feBlend mode="normal" in="SourceGraphic" in2="effect1_dropShadow_73_10130" result="shape"/>
</filter>
<linearGradient id="paint0_linear_73_10130" x1="192.5" y1="67.5429" x2="192.5" y2="197.319" gradientUnits="userSpaceOnUse">
<stop stop-color="#F7CE76" stop-opacity="0.3"/>
<stop offset="1" stop-color="#F7CE76" stop-opacity="0"/>
</linearGradient>
<linearGradient id="paint1_linear_73_10130" x1="188.632" y1="60.6504" x2="188.632" y2="73.6504" gradientUnits="userSpaceOnUse">
<stop stop-color="#FF9364"/>
<stop offset="1" stop-color="#F25F33"/>
</linearGradient>
<clipPath id="clip0_73_10130">
<rect width="390" height="243" rx="5.94667" fill="white"/>
</clipPath>
</defs>
</svg>
